<?xml version="1.0" encoding="utf-8"?>
<!-- Generator: Adobe Illustrator 23.0.3, SVG Export Plug-In . SVG Version: 6.00 Build 0)  -->
<svg version="1.1" id="Capa_1" xmlns="http://www.w3.org/2000/svg" xmlns:xlink="http://www.w3.org/1999/xlink" x="0px" y="0px"
	 viewBox="0 0 764.6 355.4" style="enable-background:new 0 0 764.6 355.4;" xml:space="preserve">
<style type="text/css">
	.st0{fill:#FFFFFF;}
	.st1{opacity:0.41;fill:#0090BD;}
	.st2{fill:#0090BD;}
	.st3{fill:none;}
</style>
<g>
	<g>
		<path class="st0" d="M538.9,243.4c-0.1,0-0.2,0-0.2,0l-38.2,0c-2.5-0.1-4.5-1-6-2.6c-3.6-4.1-3-11.4-2.9-11.7l0-165.3l-22.5,10.4
			c-2.7,1-4.7,0.9-6.2-0.1c-2.4-1.8-2.2-5.5-2.2-5.7l0-32.6c0-4.5,3.1-6.9,3.3-7l28.1-17.9c3.5-1.9,7.1-1.4,7.2-1.3l43.8,0
			c2.8,0.2,4.9,1.2,6.3,3c2.5,3.1,2.1,7.3,2.1,7.5l0,210C549,242.8,540.4,243.4,538.9,243.4z M538.7,242.4c0.4,0,9.3,0.5,11.8-12.6
			l0-209.9c0-0.1,0.4-4.1-1.9-6.8c-1.3-1.5-3.2-2.4-5.6-2.6l-43.9,0c-0.1,0-3.5-0.5-6.7,1.2l-28,17.8l0,0c0,0-2.8,2.2-2.8,6.2v32.7
			c0,0.1-0.2,3.4,1.8,4.9c1.2,0.9,2.9,0.9,5.2,0l23.9-11v166.9c0,0.1-0.6,7.2,2.7,11c1.3,1.5,3.1,2.2,5.2,2.3H538.7z"/>
		<polygon class="st1" points="499.1,9.9 525.9,27.2 543,9.9 		"/>
		<polygon class="st1" points="550.9,21.9 544.3,39.7 550.9,97.7 		"/>
		<polygon class="st1" points="492,67.8 502.9,96.2 492,170.1 		"/>
		<polygon class="st1" points="538.9,198.2 524.4,231.1 550.9,229.9 		"/>
		<path class="st1" d="M492,229.1l29.1,7.4l29.9-6.6c0,0-1.3,13-12.3,13l-15.8-5.4l-22.5,5.4C500.4,242.9,490.7,243.4,492,229.1z"/>
		<path class="st0" d="M520.8,242.9l-1,0l0.4-7.1l-0.3,0.1l-28.6-61.2l61.8-71.2l-28.2,57.5L520.8,242.9z M492.4,174.9l27.8,59.4
			l3.7-73.6l0-0.1l24.9-50.7L492.4,174.9z"/>
		<path class="st0" d="M524.7,231.6l-33.9-2.1l61.6-61.6L524.7,231.6z M493.1,228.7l31,2l25.3-58.3L493.1,228.7z"/>
		<path class="st0" d="M550.4,230l-40.9-114.8l0.1-0.2l16.8-51l1.7-5.8l0,0l0.1-0.1l15.2-51.3l1.8,36.1l-16.1,15.7l-1.7,5.7
			l-16.8,50.9l40.8,114.4L550.4,230z M542.6,12.8l-13,43.9l14.5-14.2L542.6,12.8z"/>
		<path class="st0" d="M467.2,74.4l-0.9-0.4L478,49.1L461.7,32l0.7-0.7l16,16.8L497,8.4l-4.7,55.7l-13.6-14.3L467.2,74.4z
			 M479.2,48.9l12.4,12.9l4-47.9L479.2,48.9z"/>
		<polygon class="st0" points="552.4,107.2 491.7,66.8 492.2,66 549.4,104 526.4,64.4 526.4,64.2 525.4,28.4 491.6,64 486.7,32.3 
			461.5,70.4 460.7,69.8 487.3,29.6 492.3,61.9 526.4,26 527.4,64.1 		"/>
		<rect x="511.2" y="5.9" transform="matrix(0.873 -0.4877 0.4877 0.873 46.9114 254.2587)" class="st0" width="1" height="62.3"/>
		
			<rect x="508.4" y="8.9" transform="matrix(0.9407 -0.3392 0.3392 0.9407 14.5713 175.3457)" class="st0" width="1" height="74.1"/>
		<polygon class="st0" points="507.3,47.3 475.9,47.3 480.4,16.6 486.7,32.5 485.7,32.9 480.8,20.5 477.1,46.3 507.3,46.3 		"/>
		<polygon class="st0" points="491.2,175.4 509.5,115.3 502.4,96.3 502.4,96.1 509,47.7 510,47.9 503.4,96.1 510.6,115.2 
			492.5,174.3 550.2,171.2 520.9,86.1 521.8,85.8 551.6,172.1 		"/>
		
			<rect x="480.9" y="92.9" transform="matrix(0.2306 -0.9731 0.9731 0.2306 318.0426 589.0522)" class="st0" width="101.1" height="1"/>
		
			<rect x="501.2" y="90.1" transform="matrix(0.8321 -0.5547 0.5547 0.8321 35.6566 298.8714)" class="st0" width="20.3" height="1"/>
		
			<rect x="534.8" y="22.8" transform="matrix(0.639 -0.7692 0.7692 0.639 166.2936 424.3419)" class="st0" width="1" height="24.3"/>
		<polygon class="st0" points="492.4,229.3 491.5,228.9 519.4,143.7 520.3,144 495,221.3 523.9,159.2 524.8,159.6 		"/>
		<circle class="st2" cx="496.6" cy="11.1" r="4.6"/>
		<circle class="st2" cx="543.1" cy="10" r="3.4"/>
		<circle class="st2" cx="492.3" cy="64.7" r="5.1"/>
		<circle class="st2" cx="480.6" cy="17.7" r="2.6"/>
		<circle class="st2" cx="470.8" cy="73.4" r="3.4"/>
		<circle class="st2" cx="461.1" cy="31.5" r="2.6"/>
		<circle class="st2" cx="461.1" cy="70.1" r="2.6"/>
		<circle class="st2" cx="510.1" cy="115.3" r="2.6"/>
		<circle class="st2" cx="508.2" cy="173.5" r="2.6"/>
		<circle class="st2" cx="530.9" cy="172.9" r="2"/>
		<circle class="st2" cx="534.3" cy="125.1" r="2"/>
		<circle class="st2" cx="524.4" cy="159.4" r="2.6"/>
		<circle class="st2" cx="549.9" cy="170.7" r="3.6"/>
		<circle class="st2" cx="539.3" cy="198.6" r="3"/>
		<circle class="st2" cx="522.9" cy="198.6" r="3"/>
		<circle class="st2" cx="502" cy="198.2" r="3"/>
		<circle class="st2" cx="492.1" cy="174.6" r="4.5"/>
		<circle class="st2" cx="492.3" cy="229.9" r="3.3"/>
		<circle class="st2" cx="550.9" cy="229.9" r="3.3"/>
		<circle class="st2" cx="491.8" cy="125.1" r="2.8"/>
		<circle class="st2" cx="520" cy="242.3" r="2.8"/>
		<circle class="st2" cx="539.5" cy="241.3" r="2.8"/>
		<circle class="st2" cx="509.4" cy="212.5" r="2.4"/>
		<circle class="st2" cx="535.1" cy="34.5" r="2.9"/>
		<circle class="st2" cx="544.3" cy="39.7" r="2.9"/>
		<circle class="st2" cx="534.3" cy="78.9" r="3.8"/>
		<circle class="st2" cx="531" cy="92.9" r="3.3"/>
		<circle class="st2" cx="551.4" cy="106.4" r="3.7"/>
		<circle class="st2" cx="538" cy="134.2" r="3.7"/>
		<circle class="st2" cx="519.8" cy="141.4" r="3.2"/>
		<circle class="st2" cx="520.3" cy="83.8" r="4.9"/>
		<circle class="st2" cx="502" cy="95.3" r="4"/>
		<circle class="st2" cx="485.9" cy="32.2" r="2.5"/>
		<circle class="st2" cx="525.9" cy="28.6" r="2.9"/>
		<circle class="st2" cx="508.5" cy="48.2" r="3.3"/>
		<circle class="st2" cx="550.2" cy="19.1" r="1.7"/>
		<circle class="st2" cx="526.6" cy="60.3" r="2.4"/>
		<circle class="st2" cx="476.5" cy="46.8" r="1.7"/>
	</g>
	<g>
		<circle class="st2" cx="143.1" cy="72.7" r="1.9"/>
		<path class="st0" d="M156.2,244.8c-0.4,0-0.8-0.1-0.9-0.1H0v-37.1l0.1-0.1l55.5-66L98,90.1c2.7-11.5,1.8-20-2.7-25.2
			c-5.6-6.5-14.8-5.7-14.9-5.7c-6.7-0.3-11.9,1.6-15.6,5.6c-8.6,9.5-6,28-6,28.2l0,0.1l0,0.1c-2.1,6.8-8.3,5.8-8.4,5.8l-47,0l0-0.5
			C0,64.2,15.6,38,15.7,37.7C38.5,8.5,74,8.5,74.3,8.5c43.6,2.6,54.3,13.2,55.1,14.1c30.5,21.6,28.9,52.3,28.8,53.8
			c3.4,26.1-19,51.1-19.2,51.4l-55.7,63.5l69.4-1.3l0.1,0c7.8,2.5,7.5,10,7.5,10c0,1.4,1,34.1,0,39.9c-0.4,2.3-1.3,3.9-2.5,4.6
			C157.2,244.7,156.6,244.8,156.2,244.8z M1,243.7h154.4l0.1,0c0,0,0.9,0.3,1.7-0.2c1-0.5,1.7-1.9,2-3.9c1-5.7,0-39.4,0-39.7
			c0-0.3,0.2-6.8-6.7-9L81,192.3l57.2-65.2c0.2-0.3,22.3-25,18.9-50.6l0-0.1l0-0.1c0-0.3,2.3-31.3-28.4-53l-0.1-0.1
			c-0.1-0.1-10.4-11.1-54.4-13.8c0,0,0,0,0,0c-0.9,0-35.6,0.3-57.7,28.7c-0.1,0.2-15.4,26-12.2,59.8h46.2c0.3,0,5.4,0.8,7.3-5
			c-0.2-1.8-2.5-19.3,6.2-28.9c3.9-4.3,9.4-6.3,16.3-5.9c0.3,0,9.8-0.8,15.7,6c4.8,5.5,5.8,14.4,2.9,26.2l0,0.1l-0.1,0.1l-42.5,51.4
			L1,208V243.7z"/>
		<polygon class="st1" points="91.3,22.1 125.4,23.6 108.3,37.3 		"/>
		<polygon class="st1" points="44.1,47.3 48.8,59.5 32.5,62.2 		"/>
		<polygon class="st1" points="16.2,66.8 24.3,74.7 4.9,93.5 		"/>
		<polygon class="st1" points="30.8,94.8 44.7,83.2 58.1,92.7 		"/>
		<polygon class="st1" points="58.1,42.1 80.4,40.4 73,59.1 		"/>
		<polygon class="st1" points="117,123 106.8,141.6 127.4,141.6 		"/>
		<polygon class="st1" points="87.9,167.3 106.8,163.8 86.3,187.1 		"/>
		<polygon class="st1" points="30.8,171.7 34.2,191 1.2,208.4 		"/>
		<polygon class="st1" points="120.6,221.7 94.9,244.3 147.5,244.3 		"/>
		<polygon class="st1" points="33,169.1 50.9,147.8 40.7,177.1 		"/>
		<path class="st0" d="M16.5,67.7l-8.8-4.9l0.6-1.1l7.6,4.3l6.5-15.6L9,57.9L38,15.8L24.8,47.5l33.7-19.3l15.1-17.3v48.3h-1.2v-45
			L59.2,29.2L24.1,49.3L16.5,67.7z M32.4,26.1L13.1,54.2l10-5.7L32.4,26.1z"/>
		<polygon class="st0" points="28,93.5 26.8,93.5 26.8,83.4 21.5,72.6 31.6,62.2 21.8,52.4 22.7,51.6 33.3,62.2 23,72.9 28,83.1 		
			"/>
		<path class="st0" d="M22.9,96.7L5.8,95.2l32.1-16.1L10.7,59.6l0.7-1l27.7,19.8l23.5-11.8L44.8,84L39,79.9L10.2,94.4L23,95.5
			L22.9,96.7z M40.2,79.3l4.4,3.2l11.5-11.2L40.2,79.3z"/>
		
			<rect x="38.5" y="74.6" transform="matrix(0.2478 -0.9688 0.9688 0.2478 -37.7031 101.9115)" class="st0" width="16.5" height="1.2"/>
		<path class="st0" d="M57.5,89.1l-9.4-21.9l0.1-0.2l15.1-34.3l-23-11.4l0.5-1.1l23,11.4l9-20.5l24.9,53.5L80,40.8l-15.5-7.6
			l-15,34.1l9.2,21.4L57.5,89.1z M65,32.1l15.8,7.8l11.2,14.7L73,14L65,32.1z"/>
		<path class="st0" d="M126.8,139.4l0.6-64.4l-5-6.1l-22.2,19.7l13.8-30L99.7,40.9H79.3l10.9-19.6h-53L71.4,9l0.4,1.1L44,20.1h48.2
			L81.4,39.8h18.9l14.3,17.6l14.5-31.4L128.7,65l11.3-3.4l10.1-13.1l-2,13.5l9,10l-0.9,0.8l-9.3-10.4l1.4-9.5l-7.6,9.8l-12,3.6
			l-0.1,8.3l21.9,26.9L126.8,139.4z M128.6,76.4l-0.6,58.7l21-33.6L128.6,76.4z M114.9,59.6l-11.2,24.4l18.1-16L114.9,59.6z
			 M123.3,68.1l4.1,5.1l0.1-6.5l-3.9,1.1L123.3,68.1z M115.4,58.4l7.1,8.8l0.5-0.4l4.5-1.3l0.3-34L115.4,58.4z"/>
		<polygon class="st0" points="44.7,83.8 30.1,83.8 35.6,22.5 36.8,22.6 31.4,82.6 44.7,82.6 		"/>
		<polygon class="st0" points="58.8,67.8 30.6,64.7 9.2,55.9 43.3,46.9 37.2,22.2 38.4,21.9 44.8,47.8 12.9,56.2 30.9,63.6 
			58.9,66.7 		"/>
		<path class="st0" d="M29.6,94.1l-1-0.6l25.3-44.3l-3-6.2l-10.1,7.5l8.5-10.7L40.1,21l1.1-0.5l8.9,18.3l9.2-11.6l0.7,7.6l6.1-4.6
			l-5.7,9.9l2.3,27.2l-8.3-16.8L29.6,94.1z M55.3,49.2l5.8,11.9l-1.7-19.2L55.3,49.2z M51.9,42.3l2.8,5.6l4.6-8.1L59,37L51.9,42.3z
			 M49.9,40.9l-2.6,3.2l3-2.3L49.9,40.9z M50.7,39.9l0.6,1.3l7.5-5.6l-0.5-5.4L50.7,39.9z M60.1,36.1l0.2,1.9l2-3.5L60.1,36.1z"/>
		<path class="st0" d="M150.3,242.2l-1.2-0.2l0.9-10.7l-23.8-13.6l-5.7,4.8l-33.6-27.2l0.7-1l38.4,22l28.6-24.1l-3.4,38.5l0.8,0.5
			l7-24.9l1.1,0.3l-7.1,25.2l4.8,2.7l-0.6,1l-4.5-2.6L150.3,242.2z M151.2,232l-0.3,3.8l1-3.4L151.2,232z M127.3,216.9l23,13.1
			l3.1-35.1L127.3,216.9z M93.5,199l27.1,22l4.6-3.9L93.5,199z"/>
		
			<rect x="131.5" y="189.5" transform="matrix(0.8284 -0.5601 0.5601 0.8284 -99.8944 111.5491)" class="st0" width="1.2" height="58.6"/>
		
			<rect x="129.3" y="209.7" transform="matrix(0.8658 -0.5004 0.5004 0.8658 -85.8234 100.4931)" class="st0" width="30.4" height="1.2"/>
		<polygon class="st0" points="93.9,245.4 51.6,145 81.9,187.8 80.9,188.4 56.9,154.6 90.6,234.5 86.7,214.5 87.2,214.4 151.8,192 
			152.2,193.1 100.3,218 151.8,200.6 152.2,201.8 91.4,222.3 91,221.2 142.4,196.5 88.1,215.3 		"/>
		<polygon class="st0" points="147.3,244.9 88.6,222.2 81.9,196.1 44.2,243.7 21.9,218.3 0.7,207.7 1.3,206.7 22.6,217.4 
			44.2,241.9 82.4,193.5 89.6,221.3 147.7,243.8 		"/>
		<path class="st0" d="M42.7,244.8l7.6-17.4l1.9-45.4l-4.8-1.7l-9.1,39.7l-0.2,0.1L6.3,243.5l34-67.1l6.2,2.2l7.1-31l1.2,0.2
			l-1.4,33.3l27.1,9.8l-0.4,1.1l-26.7-9.6l-1.9,45.3l-5.8,13.2l13.6-10.9l28.9,12.4l-0.5,1.1l-28.2-12.1L42.7,244.8z M40.9,177.9
			L9.6,239.6l27.6-20.3l9.1-39.4L40.9,177.9z M47.7,179l4.6,1.7l1.1-26.5L47.7,179z"/>
		<path class="st0" d="M43.6,242.9l-2-8l-33.5,7.1L7.8,241L40.9,227l1.6,6.5l16.7-3.6l29.6-8.8l0.3,1.1l-29.7,8.8l-16.8,3.6l2,8
			L43.6,242.9z M40.1,228.7l-26.1,11l27.3-5.8L40.1,228.7z"/>
		<polygon class="st0" points="117,222.3 34.9,222.2 34.8,222.2 20.2,217.6 20.6,216.5 35.1,221 117,221.1 		"/>
		<polygon class="st0" points="68.2,228.5 67.3,227.7 79.4,215.1 34.8,192 35.6,219.6 34.4,219.6 33.6,190 81.3,214.8 		"/>
		
			<rect x="84" y="201.8" transform="matrix(0.7802 -0.6255 0.6255 0.7802 -104.6915 106.8117)" class="st0" width="31.3" height="1.2"/>
		<polygon class="st0" points="35.7,224.3 77.8,194.7 2.8,208.2 2.6,207.1 82.9,192.5 45.2,219.1 69.7,208.9 70.1,210 		"/>
		<polygon class="st0" points="38.3,222 37.3,221.4 69.4,171.6 86.9,122.8 97,94.3 98.1,94.7 88,123.2 70.4,172.2 		"/>
		<polygon class="st0" points="34.5,191.5 33.9,190.5 85.7,162.1 86.8,124.2 57.6,144.1 56.9,143.1 88.1,121.9 86.9,162.8 86.6,163 
					"/>
		<polygon class="st0" points="110.6,160.2 78.8,146.5 79.3,145.4 109.1,158.2 106.3,142.3 58.2,146.6 58.1,145.4 107.3,141 		"/>
		<polygon class="st0" points="69.2,170.4 78.5,119.4 79.7,119.6 70.6,169 87.6,166.7 104.4,141.6 94.3,116.5 94.3,116.4 98.4,93.4 
			103.7,113.3 106.8,136.9 110.2,109.2 102.6,95.3 103.7,94.7 111.5,109 111.4,109.2 106.8,146.3 102.5,113.5 98.6,98.8 95.5,116.4 
			105.8,141.7 88.3,167.8 		"/>
		
			<rect x="88.2" y="110.5" transform="matrix(0.1161 -0.9932 0.9932 0.1161 -37.9451 191.8728)" class="st0" width="1.2" height="13.5"/>
		<polygon class="st0" points="75.9,58 75.2,57 99.2,40.2 77.9,11.8 78.9,11.1 100.8,40.5 		"/>
		<polygon class="st0" points="94.5,60.8 87.3,26.9 88.5,26.6 95.2,58.3 124.9,26.3 125.8,27.1 		"/>
		<path class="st0" d="M109.8,110.4l12.7-42.7l-24.2-4l0.2-1.2l25.5,4.2l-12.2,41L146,85.9l-3.2-15.5l0-0.1l1-17.3l-13.1-24.9
			l1.1-0.6L145,52.8l-1,17.5l3,14.9l10-6.4l-7.5,25.2l-3.4-16.8L109.8,110.4z M147.3,86.5l2.6,12.6l5.2-17.5L147.3,86.5z"/>
		<path class="st0" d="M128.3,96.9L102.8,93l18.8-7.4l-15.2-32l-13.3,7.5l14.9-24.8l11.1,8.6l2.3-1.3l0.3,3.4l17.2,13.4l-11.2-31.6
			l1.1-0.4l12.6,35.4l-19.5-15.2l1.8,18l21.2,5.4l-11.3,10l-10.5,4.1L128.3,96.9z M107.4,92.5l18.9,2.9l-4.1-8.7L107.4,92.5z
			 M107.5,53l15.3,32.1l10.5-4.1l9.4-8.3l-19.8-5l-2-20l-1.7-1.3L107.5,53z M108.5,38.2L96.6,57.9l21.5-12.2L108.5,38.2z
			 M120.2,45.8l0.4,0.3l0-0.5L120.2,45.8z"/>
		
			<rect x="106.1" y="16.7" transform="matrix(0.9881 -0.1541 0.1541 0.9881 -2.8926 16.7611)" class="st0" width="1.2" height="20.7"/>
		<polygon class="st0" points="132.4,129.9 131.2,129.8 139.9,61.1 154.8,72.3 154.1,73.2 140.8,63.3 		"/>
		<polygon class="st0" points="121.9,120.1 121.4,119 145.2,106.6 127.6,96.9 119.9,116.7 118.8,116.3 127,95.3 147.7,106.6 		"/>
		
			<rect x="115.7" y="78.5" transform="matrix(0.3594 -0.9332 0.9332 0.3594 11.8733 175.579)" class="st0" width="36.3" height="1.2"/>
		<circle class="st3" cx="117" cy="121.6" r="5.1"/>
		<circle class="st2" cx="10" cy="59.5" r="5.1"/>
		<circle class="st2" cx="100" cy="91" r="5.1"/>
		<circle class="st2" cx="117" cy="121.6" r="5.1"/>
		<circle class="st2" cx="26.9" cy="97.5" r="4.6"/>
		<circle class="st2" cx="44.2" cy="245.4" r="2.6"/>
		<circle class="st2" cx="8" cy="244.1" r="3.9"/>
		<circle class="st2" cx="61.9" cy="67.2" r="3.1"/>
		<circle class="st2" cx="109.8" cy="162.2" r="3.1"/>
		<circle class="st2" cx="75.3" cy="201.9" r="3.1"/>
		<circle class="st2" cx="79.1" cy="116.5" r="3.1"/>
		<circle class="st2" cx="107.3" cy="143.6" r="3.6"/>
		<circle class="st2" cx="109.8" cy="108.1" r="2"/>
		<circle class="st2" cx="80.4" cy="143.1" r="2"/>
		<circle class="st2" cx="34.9" cy="201.9" r="1.7"/>
		<circle class="st2" cx="125.7" cy="210.3" r="1.7"/>
		<circle class="st2" cx="50.5" cy="228.1" r="1.7"/>
		<circle class="st2" cx="95.5" cy="118" r="2"/>
		<circle class="st2" cx="74.3" cy="145.2" r="2"/>
		<circle class="st2" cx="61.8" cy="184.3" r="2"/>
		<circle class="st2" cx="97.7" cy="203.9" r="2.8"/>
		<circle class="st2" cx="110.9" cy="214.6" r="2"/>
		<circle class="st2" cx="42.7" cy="194.5" r="2"/>
		<circle class="st2" cx="133.8" cy="222.6" r="2"/>
		<circle class="st2" cx="109" cy="230.7" r="3.2"/>
		<circle class="st2" cx="59.8" cy="231" r="2"/>
		<circle class="st2" cx="60.3" cy="222.2" r="2.6"/>
		<circle class="st2" cx="81.4" cy="215.8" r="2.6"/>
		<circle class="st2" cx="132.9" cy="113.8" r="2"/>
		<circle class="st2" cx="127.6" cy="115.9" r="1.3"/>
		<circle class="st2" cx="103.1" cy="113.4" r="3.1"/>
		<circle class="st2" cx="87.9" cy="123" r="3.1"/>
		<circle class="st2" cx="96.2" cy="153.9" r="2.6"/>
		<circle class="st2" cx="91" cy="143.5" r="3.1"/>
		<circle class="st2" cx="20.4" cy="216.3" r="3.1"/>
		<circle class="st2" cx="52.5" cy="180.2" r="3.1"/>
		<circle class="st2" cx="52.5" cy="197.1" r="3.1"/>
		<circle class="st2" cx="26.4" cy="203.7" r="3.7"/>
		<circle class="st2" cx="119.4" cy="221.7" r="3.7"/>
		<circle class="st2" cx="37.3" cy="222.6" r="4.3"/>
		<circle class="st2" cx="69.7" cy="171.5" r="3.6"/>
		<circle class="st2" cx="87.4" cy="221.7" r="3.6"/>
		<circle class="st2" cx="114.3" cy="191.4" r="3.4"/>
		<circle class="st2" cx="54.3" cy="146" r="3.8"/>
		<circle class="st2" cx="33.8" cy="63" r="3.1"/>
		<circle class="st2" cx="22.3" cy="53.7" r="2"/>
		<circle class="st2" cx="33" cy="49.7" r="2"/>
		<circle class="st2" cx="66.2" cy="51.8" r="2"/>
		<circle class="st2" cx="29.4" cy="83.8" r="2"/>
		<circle class="st2" cx="38.1" cy="79.5" r="2.4"/>
		<circle class="st2" cx="114.3" cy="59.1" r="2.4"/>
		<circle class="st2" cx="128.1" cy="96.1" r="2.4"/>
		<circle class="st2" cx="139.3" cy="89.4" r="2.8"/>
		<circle class="st2" cx="138.6" cy="62.4" r="2.4"/>
		<circle class="st2" cx="48.8" cy="66.2" r="2"/>
		<circle class="st2" cx="44.7" cy="46.7" r="2.7"/>
		<circle class="st2" cx="80.4" cy="40.4" r="2.7"/>
		<circle class="st2" cx="100" cy="42.1" r="2.7"/>
		<circle class="st2" cx="42.7" cy="38.8" r="1.9"/>
		<circle class="st2" cx="56.2" cy="42.1" r="1.9"/>
		<circle class="st2" cx="119.4" cy="45.5" r="1.9"/>
		<circle class="st2" cx="133.5" cy="82.4" r="2.4"/>
		<circle class="st2" cx="109.2" cy="66.2" r="1.9"/>
		<circle class="st2" cx="116.6" cy="87.8" r="1.9"/>
		<circle class="st2" cx="58.7" cy="29.1" r="2.4"/>
		<circle class="st2" cx="90.9" cy="20.7" r="2.4"/>
		<circle class="st2" cx="106.8" cy="49.7" r="2.4"/>
		<circle class="st2" cx="69.9" cy="34.8" r="2.4"/>
		<circle class="st2" cx="48.9" cy="34.5" r="1.5"/>
		<circle class="st2" cx="24.3" cy="48.7" r="1"/>
		<circle class="st2" cx="75.5" cy="9.6" r="3.9"/>
		<circle class="st2" cx="35.7" cy="18.5" r="3.9"/>
		<circle class="st2" cx="105.1" cy="13.6" r="3.2"/>
		<circle class="st2" cx="84.7" cy="191.4" r="4.4"/>
		<circle class="st2" cx="92.3" cy="244.3" r="4.4"/>
		<circle class="st2" cx="94.9" cy="63.2" r="3.6"/>
		<circle class="st2" cx="128.4" cy="23.6" r="5.1"/>
		<circle class="st2" cx="58.1" cy="92.7" r="3.8"/>
		<circle class="st2" cx="73" cy="59.1" r="3.1"/>
		<circle class="st2" cx="127.4" cy="141.6" r="4.4"/>
		<circle class="st2" cx="30.8" cy="171.7" r="3.4"/>
		<circle class="st2" cx="27" cy="212.4" r="3.7"/>
		<polygon class="st0" points="123.8,67.4 122.9,67.1 127.7,51.7 136.1,50.2 147.2,48.2 147.4,49.2 128.5,52.6 		"/>
		<circle class="st2" cx="128.1" cy="52.9" r="2.7"/>
		<circle class="st2" cx="122" cy="68.7" r="3.3"/>
		<circle class="st2" cx="136.2" cy="50.7" r="1.9"/>
		
			<rect x="88.8" y="151.4" transform="matrix(0.8925 -0.4511 0.4511 0.8925 -57.0076 64.6746)" class="st0" width="36.8" height="1"/>
		<circle class="st2" cx="149.8" cy="244.3" r="2.2"/>
		<circle class="st2" cx="158.8" cy="236.2" r="3.2"/>
		<circle class="st2" cx="152" cy="203.7" r="3.1"/>
		<circle class="st2" cx="154" cy="191" r="2.6"/>
		<circle class="st2" cx="159.8" cy="201.2" r="2.6"/>
		<circle class="st2" cx="88.1" cy="161.5" r="3.7"/>
		<circle class="st2" cx="151.6" cy="106.6" r="5.1"/>
		<circle class="st2" cx="150.8" cy="47.3" r="3.7"/>
		<circle class="st2" cx="158.8" cy="76.8" r="4.4"/>
	</g>
	<g>
		<g>
			<path class="st0" d="M309.9,250c-65.1,0-118.1-53-118.1-118.1s53-118.1,118.1-118.1S428,66.8,428,131.9S375,250,309.9,250z
				 M309.9,14.8c-64.5,0-117.1,52.5-117.1,117.1S245.4,249,309.9,249S427,196.4,427,131.9S374.5,14.8,309.9,14.8z"/>
			<path class="st0" d="M311,191.5c-32.7,0-59.3-26.6-59.3-59.3c0-32.7,26.6-59.3,59.3-59.3c32.7,0,59.3,26.6,59.3,59.3
				C370.3,164.9,343.7,191.5,311,191.5z M311,73.4c-32.4,0-58.8,26.4-58.8,58.8c0,32.4,26.4,58.8,58.8,58.8
				c32.4,0,58.8-26.4,58.8-58.8C369.8,99.8,343.4,73.4,311,73.4z"/>
			<polygon class="st1" points="228.8,84.4 231.5,118.8 196.1,149.8 			"/>
			<polygon class="st1" points="259.7,166.1 229.8,214.8 286.6,200.1 			"/>
			<polygon class="st1" points="386,79.7 364.5,98.7 377.8,122.2 			"/>
			<polygon class="st1" points="337,37.1 392.5,48.3 355,65.7 			"/>
			<path class="st0" d="M322,248.7l7.9-56.3l-60.3,48.8l-5.3-38.2l-29.7-22.8l-5.7,34.6l-1-0.1l1.2-38.6l-33.4-25.6l0.2-0.2
				l-0.4-0.1l0.1-0.4l9.6-72.8l0-0.1l0.1,0l0.6-4.7l0.6,3.8c5.4-5.2,35.2-34.1,51.4-49.9l2.1-2.1l-18.3,36.6l8.1-3.7l9-30.4l1,0.2
				l-10.4,63.5c7.2,2.3,12.9,4.2,14.8,4.8l-4-70.4l34.2,50.2l47.4-58.3l-13,58.4l45.2-18.4L404,95.6l-14.5,16.3L383,147l44.9-15.9
				l-35.1,37.5L416,186l-40.6,1.2L322,248.7z M331.2,190.1l-7.8,55.4l50.6-58.3l-43.3,1.2l-63.1,17.2l-2.1-1.6l4.9,35.4L331.2,190.1
				z M230.1,176.8l-1,30.3l4.5-27.6L230.1,176.8z M265.3,202.5l2.5,1.9l62.8-17.1l44.2-1.3l4.8-26.2l-10.7-8l13-4.6l6.6-36l0.1-0.1
				l14-15.7l-29.1-38l-46.2,18.9l12.5-56.1l-45.6,56l-32.9-48.3l3.9,68.2l-0.7-0.2c-3.9-1.3-9.3-3-15.4-5L237.9,160l22.3,5.7
				L265.3,202.5z M234.8,179.1l29.4,22.5l-4.8-35.2l-21.5-5.5L234.8,179.1z M392.1,169.3l-15.7,16.8l36.8-1L392.1,169.3z
				 M380.5,160.6l-4.5,24.3l15.2-16.2L380.5,160.6z M230.2,175.6l3.7,2.8l2.9-17.7l-6.1-1.6L230.2,175.6z M197.7,150.7l31.5,24.2
				l0.5-16L197.7,150.7z M380.7,159.5L392,168l32.4-34.6l-41.5,14.8L380.7,159.5z M230.7,158.1l6.2,1.6l11.3-68.9
				c-2-0.6-4.1-1.3-6.1-2l-8.5,31.2l-1.6-0.2L230.7,158.1z M371.1,152.3l8.8,6.6l1.9-10.4L371.1,152.3z M196.7,149.4l33.1,8.5
				l1.2-38.2l-19-2.2l-0.1-0.4l-6-38.1L196.7,149.4z M232,118.8l0.8,0.1l8.3-30.4c-14.6-4.7-30-9.6-34.2-10.7l25,40.8L232,118.8z
				 M212.9,116.6l18,2.1L207.1,80L212.9,116.6z M242.3,87.9c2.1,0.7,4.1,1.3,6,1.9l9.1-55.4l-6.7,22.9L242.3,87.9z M207.4,76.9
				c2.8,0.7,9.9,2.9,28.1,8.8c2,0.6,3.9,1.3,5.9,1.9l7.7-28.3l-20,24l10.4-20.7L207.4,76.9z M240.9,61.9L233.9,76l14.6-17.5
				L240.9,61.9z M256.4,28.7c-4.2,4.1-14.1,13.7-24,23.4c-6.5,6.4-13.1,12.7-18,17.5c-2.9,2.8-4.8,4.7-6.1,5.9l31.8-14.3L256.4,28.7
				z"/>
			<path class="st0" d="M322.8,247.6l-53.2-6.9l-0.1-0.2l-24.2-51.5l0-0.1l-4.3-54.9l1-0.1l4.3,54.8l24,51.1l52.3,6.7l54.7-37.5
				l-7.8-56.9l0-0.1l3-31.3l-11.6-19l27.7-24.9l6.4-25.6l1,0.2l-8.2,92.7l25.3,41.6l-30.8,21.1l-2.1,23.9l-2.8-20.5L322.8,247.6z
				 M378.3,209.6l1.7,12.2l1.3-14.2L378.3,209.6z M370.5,152.1l7.7,56.3l3.2-2.2l5.5-61.9l-13.5-22.2L370.5,152.1z M387.8,145.8
				l-5.3,59.7l29.4-20.1L387.8,145.8z M362.3,101.9l24.8,40.8l7.5-85l-5,19.7L362.3,101.9z"/>
			
				<rect x="216.7" y="142.1" transform="matrix(0.7699 -0.6381 0.6381 0.7699 -61.8665 178.9598)" class="st0" width="1" height="66.3"/>
			<polygon class="st0" points="382.9,227.6 327.8,211.3 298.1,217.9 298,217.9 269.8,207.3 270.1,206.4 298.2,216.9 327.8,210.2 
				327.9,210.3 377.3,224.9 330.2,191.6 330.8,190.8 			"/>
			<polygon class="st0" points="415.6,182.4 407.8,138.7 388.9,108.6 425.9,130.4 402.9,95.9 403.7,95.3 429.1,133.4 391.9,111.6 
				408.8,138.4 408.8,138.5 416.6,182.3 			"/>
			<polygon class="st0" points="425.7,129.7 395.7,53.6 396.6,53.3 426.6,129.3 			"/>
			<polygon class="st0" points="362.1,102 361.1,101.7 373.2,57.1 340.4,18.8 341.2,18.1 374.3,56.9 374.2,57.1 			"/>
			<path class="st0" d="M248.7,90.8l-0.5-0.9l40.7-22.3l24.2-22.7l-26.6-3.3l-0.1-0.1l-27.3-17.5l35.6,4.8l19.7,15.3l0.9,0.1
				l-0.4,0.3l2.8,2.1l71.6,30l-0.4,0.9l-71.8-30l-3-2.3l-24.8,23.2L248.7,90.8z M286.8,40.7l25.6,3.2l-18.2-14.1l-30.9-4.1
				L286.8,40.7z"/>
			<polygon class="st0" points="324.6,251.8 267.4,205.4 268,204.6 318.9,245.9 259.3,166.4 232.5,119.3 264.3,95.3 294,29.1 
				294.9,29.5 265.1,95.9 265,96 233.8,119.6 260.2,165.9 			"/>
			<path class="st0" d="M269.8,240.9l-0.3-0.3l-31.1-39L228.1,216l-16.2-98.9l1-0.2l15.8,96.5l9.6-13.5l31.7,39.7l105.6-53.9
				l4.7,38.2l27.5-85.4l-12.5-85.7L361.4,103l-21-83.9l-31.2,13.1l20.1,45.2l-42.8-35.7l-28.7,12L294,29l6.8-15.5l7.9,17.9
				l32.3-13.6l0.1,0.6l20.6,82.3l34.1-50.6l12.9,88.5l0,0.1l-28.9,89.8l-5-41.3L269.8,240.9z M287.6,41.3l39.1,32.6l-18.4-41.3
				L287.6,41.3z M300.9,15.9l-6,13.7l-0.1,0.1l-28.2,19.4l41.4-17.4L300.9,15.9z"/>
			<polygon class="st0" points="288.9,68.4 258.5,49.7 281.9,57.1 281.6,58.1 265.9,53.1 289.4,67.6 			"/>
			<polygon class="st0" points="317.7,47.6 317.2,46.7 335.4,37.4 308.5,32.4 308.7,31.5 338.5,36.9 			"/>
			<circle class="st2" cx="228.1" cy="83.8" r="3.6"/>
			<circle class="st2" cx="263.7" cy="94" r="3.6"/>
			<circle class="st2" cx="249.9" cy="90.4" r="3.6"/>
			<circle class="st2" cx="281.1" cy="55.1" r="3.6"/>
			<circle class="st2" cx="322.2" cy="36.5" r="3"/>
			<circle class="st2" cx="337.8" cy="37.9" r="3.8"/>
			<circle class="st2" cx="346" cy="39.1" r="2.6"/>
			<circle class="st2" cx="314.7" cy="47.1" r="3.6"/>
			<circle class="st2" cx="306.5" cy="58.9" r="3.9"/>
			<circle class="st2" cx="242.1" cy="87.2" r="1.8"/>
			<circle class="st2" cx="259.6" cy="24.9" r="4.1"/>
			<circle class="st2" cx="301" cy="12.7" r="3.2"/>
			<circle class="st2" cx="341.6" cy="16.7" r="4"/>
			<circle class="st2" cx="396.2" cy="49.4" r="4"/>
			<circle class="st2" cx="402.5" cy="96.9" r="4"/>
			<circle class="st2" cx="294.3" cy="74.6" r="5.1"/>
			<circle class="st2" cx="326.4" cy="73.6" r="3.7"/>
			<polygon class="st0" points="353.1,65.9 352.1,65.6 359.4,43.3 360.4,43.6 			"/>
			<circle class="st2" cx="359.9" cy="43.5" r="2.6"/>
			<circle class="st2" cx="372.4" cy="57.5" r="2.9"/>
			<circle class="st2" cx="353.7" cy="63.9" r="3.2"/>
			<circle class="st2" cx="388.2" cy="76.9" r="2.2"/>
			<circle class="st2" cx="362.9" cy="100.1" r="3.5"/>
			<circle class="st2" cx="377.2" cy="121.5" r="3.5"/>
			<circle class="st2" cx="385.5" cy="134.2" r="2"/>
			<circle class="st2" cx="368.2" cy="154.3" r="3.6"/>
			<circle class="st2" cx="399.9" cy="160.7" r="4.1"/>
			<circle class="st2" cx="383.8" cy="177.4" r="3.1"/>
			<circle class="st2" cx="377" cy="210.5" r="2.7"/>
			<circle class="st2" cx="355.5" cy="208.7" r="2.7"/>
			<circle class="st2" cx="330" cy="189.7" r="2.7"/>
			<circle class="st2" cx="327.3" cy="211.7" r="3"/>
			<circle class="st2" cx="237.4" cy="201.8" r="3"/>
			<circle class="st2" cx="226.9" cy="214.9" r="4"/>
			<circle class="st2" cx="223.4" cy="185.8" r="4"/>
			<circle class="st2" cx="234.5" cy="180.8" r="3"/>
			<circle class="st2" cx="237" cy="161.1" r="2.5"/>
			<circle class="st2" cx="241.7" cy="135.9" r="2.5"/>
			<circle class="st2" cx="246.3" cy="109.1" r="3.6"/>
			<circle class="st2" cx="232.4" cy="119.7" r="2.8"/>
			<circle class="st2" cx="212" cy="116.7" r="2.4"/>
			<circle class="st2" cx="219.5" cy="101" r="2.4"/>
			<circle class="st2" cx="240.3" cy="61" r="2.4"/>
			<circle class="st2" cx="261.3" cy="51.9" r="3.5"/>
			<circle class="st2" cx="249.9" cy="57.4" r="2.4"/>
			<circle class="st2" cx="219.5" cy="156.5" r="2.5"/>
			<circle class="st2" cx="221.2" cy="171.5" r="2.8"/>
			<circle class="st2" cx="230.3" cy="159.8" r="2.2"/>
			<circle class="st2" cx="265.9" cy="206.1" r="3.4"/>
			<circle class="st2" cx="245.7" cy="189" r="3.9"/>
			<circle class="st2" cx="260.6" cy="166.1" r="3.4"/>
			<circle class="st2" cx="298.6" cy="217.9" r="3"/>
			<circle class="st2" cx="295.6" cy="228.3" r="3"/>
			<circle class="st2" cx="322.3" cy="248.1" r="4.1"/>
			<circle class="st2" cx="269.9" cy="241.8" r="4.1"/>
			<circle class="st2" cx="366.7" cy="217.4" r="2.1"/>
			<circle class="st2" cx="360.7" cy="221" r="1.6"/>
			<circle class="st2" cx="373.8" cy="187.5" r="3.7"/>
			<circle class="st2" cx="414.5" cy="184.5" r="4.7"/>
			<circle class="st2" cx="379.6" cy="227" r="5.9"/>
			<circle class="st2" cx="389.4" cy="112.1" r="3.5"/>
			<circle class="st2" cx="405.5" cy="119.7" r="3"/>
			<circle class="st2" cx="390.4" cy="144.9" r="3"/>
			<circle class="st2" cx="408.9" cy="138.4" r="3.6"/>
		</g>
		<circle class="st2" cx="427.5" cy="130.8" r="4"/>
		<circle class="st2" cx="194.5" cy="151.5" r="3.6"/>
		<circle class="st2" cx="205.8" cy="75.8" r="4.1"/>
	</g>
	<rect x="86.2" y="341.8" class="st0" width="128" height="1"/>
	<rect x="571.2" y="344.6" class="st0" width="127" height="1"/>
	<g>
		<g>
			<path class="st0" d="M246.5,332.8h11.1v5.5h-11.1v15.5h-7v-34.6h21.6c0.1,0.4,0.1,0.7,0.1,1c0,0.3,0,0.6,0,1c0,1-0.3,1.9-0.9,2.6
				c-0.6,0.7-1.7,1-3.3,1h-10.6V332.8z"/>
			<path class="st0" d="M247.2,354.5h-8.5v-36h23l0.1,0.6c0.1,0.4,0.1,0.8,0.1,1c0,0.3,0,0.6,0,1c0,1.2-0.4,2.2-1.1,3.1
				c-0.8,0.9-2,1.3-3.8,1.3h-9.9v6.6h11.1v7h-11.1V354.5z M240.2,353.1h5.6v-15.5h11.1v-4.1h-11.1V324h11.3c1.4,0,2.3-0.3,2.7-0.8
				c0.5-0.6,0.7-1.2,0.7-2.1c0-0.4,0-0.7,0-0.9c0-0.1,0-0.2,0-0.3h-20.3V353.1z"/>
		</g>
		<g>
			<path class="st0" d="M271,321.1c0,1.1-0.4,2-1.1,2.7c-0.7,0.7-1.6,1-2.7,1c-1.1,0-2-0.3-2.7-1c-0.7-0.7-1.1-1.6-1.1-2.7
				c0-1.1,0.4-2,1.1-2.7c0.7-0.7,1.6-1.1,2.7-1.1c1,0,1.9,0.4,2.7,1.1C270.6,319.1,271,320,271,321.1z M270.9,354.1
				c-0.1,0.1-0.4,0.1-0.9,0.2c-0.5,0-1,0.1-1.5,0.1c-0.7,0-1.3-0.1-1.9-0.2c-0.6-0.1-1-0.3-1.4-0.7c-0.4-0.3-0.7-0.8-0.9-1.3
				c-0.2-0.5-0.3-1.3-0.3-2.1v-20.7c0,0,0.3-0.1,0.8-0.1c0.5-0.1,1-0.1,1.6-0.1c0.5,0,1.1,0.1,1.7,0.2c0.5,0.1,1,0.3,1.5,0.6
				c0.4,0.3,0.8,0.7,1.1,1.2c0.3,0.5,0.4,1.2,0.4,2.1V354.1z"/>
			<path class="st0" d="M268.4,355c-0.7,0-1.4-0.1-2-0.2c-0.7-0.1-1.2-0.4-1.7-0.8c-0.5-0.4-0.9-0.9-1.1-1.6
				c-0.3-0.6-0.4-1.4-0.4-2.4v-20.7c0-0.7,0.7-0.8,1.4-0.8c1.1-0.1,2.3-0.1,3.5,0.1c0.6,0.1,1.2,0.4,1.8,0.7c0.6,0.4,1,0.9,1.3,1.5
				c0.3,0.6,0.5,1.4,0.5,2.4v21.3l-0.4,0.2c-0.2,0.1-0.4,0.2-1.2,0.2C269.5,355,269,355,268.4,355z M264.6,330V350
				c0,0.8,0.1,1.4,0.3,1.8c0.2,0.4,0.4,0.8,0.7,1c0.3,0.3,0.7,0.4,1.1,0.5c0.9,0.2,2.2,0.2,3.2,0.1c0.1,0,0.2,0,0.3,0v-20.3
				c0-0.7-0.1-1.3-0.3-1.8c-0.2-0.4-0.5-0.7-0.8-1c-0.4-0.2-0.8-0.4-1.2-0.5c-1-0.2-2.1-0.2-3-0.1C264.7,330,264.6,330,264.6,330z
				 M267.2,325.6c-1.3,0-2.3-0.4-3.2-1.2c-0.9-0.8-1.3-1.9-1.3-3.2c0-1.3,0.4-2.4,1.3-3.2c0.9-0.8,1.9-1.3,3.2-1.3
				c1.2,0,2.3,0.4,3.2,1.3c0.9,0.8,1.3,1.9,1.3,3.2c0,1.3-0.5,2.4-1.3,3.2C269.5,325.1,268.4,325.6,267.2,325.6z M267.2,318.1
				c-0.9,0-1.6,0.3-2.2,0.9c-0.6,0.6-0.9,1.3-0.9,2.2c0,0.9,0.3,1.6,0.9,2.2c0.6,0.6,1.3,0.8,2.2,0.8c0.9,0,1.6-0.3,2.2-0.8
				c0.6-0.6,0.9-1.3,0.9-2.2c0-0.9-0.3-1.6-0.9-2.2C268.7,318.4,268,318.1,267.2,318.1z"/>
		</g>
		<g>
			<path class="st0" d="M290.2,349.4c0.9,0,1.6-0.1,2.3-0.3c0.7-0.2,1.2-0.4,1.8-0.7c0.5-0.3,1-0.6,1.3-0.9c0.4-0.3,0.7-0.6,1-0.9
				c0.4,0.5,0.8,1.2,1.3,2c0.4,0.8,0.7,1.5,0.7,2c0,0.8-0.4,1.4-1.3,2.1c-0.7,0.6-1.7,1-3.1,1.4s-2.9,0.6-4.7,0.6
				c-1.6,0-3.2-0.2-4.8-0.6c-1.6-0.4-3-1.1-4.2-2.2c-1.2-1-2.2-2.4-3-4.2s-1.1-3.9-1.1-6.6c0-2.2,0.3-4,1-5.6
				c0.7-1.6,1.6-2.9,2.7-3.9c1.1-1,2.4-1.8,3.8-2.3c1.4-0.5,2.9-0.7,4.3-0.7c1.9,0,3.6,0.3,4.9,0.9c1.3,0.6,2.4,1.4,3.3,2.4
				c0.8,1,1.5,2.2,1.8,3.5c0.4,1.3,0.6,2.7,0.6,4.1c0,0.2,0,0.4,0,0.7s0,0.6,0,0.9c0,0.3,0,0.6-0.1,0.9c0,0.3,0,0.5-0.1,0.7h-15.2
				c0.1,1.9,0.7,3.5,1.8,4.7C286.3,348.8,287.9,349.4,290.2,349.4z M292.5,338.9c0-1.7-0.3-3-1-4c-0.6-1-1.8-1.5-3.5-1.5
				c-1.4,0-2.6,0.5-3.4,1.5c-0.8,1-1.3,2.3-1.3,4.1H292.5z"/>
			<path class="st0" d="M289.5,355.4c-1.7,0-3.3-0.2-5-0.6c-1.7-0.4-3.2-1.2-4.5-2.3c-1.3-1.1-2.4-2.6-3.2-4.4
				c-0.8-1.8-1.2-4.1-1.2-6.9c0-2.3,0.4-4.2,1.1-5.9c0.7-1.7,1.7-3,2.9-4.1c1.2-1.1,2.5-1.9,4-2.4c1.5-0.5,3-0.8,4.6-0.8
				c2,0,3.8,0.3,5.2,1c1.4,0.6,2.6,1.5,3.5,2.6c0.9,1.1,1.6,2.3,2,3.7c0.4,1.4,0.6,2.8,0.6,4.3v0.7c0,0.3,0,0.6,0,0.9l-0.1,0.9
				c0,0.3-0.1,0.6-0.1,0.8l-0.1,0.6h-15c0.2,1.4,0.7,2.6,1.5,3.6c0.9,1.1,2.3,1.6,4.4,1.6c0.8,0,1.5-0.1,2.1-0.3
				c0.6-0.2,1.2-0.4,1.6-0.6c0.5-0.2,0.9-0.5,1.2-0.8c0.4-0.3,0.7-0.6,1-0.9l0.6-0.5l0.5,0.6c0.4,0.5,0.9,1.2,1.4,2.1
				c0.5,0.9,0.8,1.7,0.8,2.3c0,1-0.5,1.9-1.6,2.6c-0.8,0.6-1.9,1.1-3.3,1.5C293,355.2,291.4,355.4,289.5,355.4z M288.3,329.4
				c-1.4,0-2.8,0.2-4.1,0.7c-1.3,0.4-2.5,1.2-3.5,2.1c-1,1-1.9,2.2-2.5,3.7c-0.6,1.5-0.9,3.3-0.9,5.3c0,2.5,0.4,4.7,1.1,6.3
				c0.7,1.6,1.6,2.9,2.8,3.9c1.1,1,2.4,1.6,3.9,2c1.5,0.4,3,0.6,4.6,0.6c1.7,0,3.2-0.2,4.5-0.6c1.2-0.4,2.2-0.8,2.8-1.3
				c0.7-0.5,1-1,1-1.5c0-0.3-0.1-0.8-0.6-1.6c-0.3-0.5-0.5-0.9-0.8-1.3c-0.1,0.1-0.3,0.3-0.5,0.4c-0.4,0.4-0.9,0.7-1.5,1
				c-0.6,0.3-1.2,0.6-1.9,0.8c-0.7,0.2-1.6,0.3-2.5,0.3c-2.5,0-4.3-0.7-5.5-2.1c-1.1-1.4-1.8-3.1-1.9-5.1l-0.1-0.8h15.4c0,0,0,0,0,0
				l0.1-0.9c0-0.3,0-0.6,0-0.8v-0.7c0-1.4-0.2-2.7-0.5-3.9c-0.4-1.2-0.9-2.3-1.7-3.2c-0.8-0.9-1.8-1.7-3-2.2
				C291.7,329.7,290.1,329.4,288.3,329.4z M293.3,339.7h-10.5v-0.7c0-1.9,0.5-3.5,1.4-4.6c1-1.1,2.3-1.7,3.9-1.7
				c1.9,0,3.3,0.6,4.1,1.9c0.7,1.1,1.1,2.6,1.1,4.4V339.7z M284.2,338.2h7.6c-0.1-1.2-0.4-2.2-0.8-2.9c-0.5-0.8-1.4-1.2-2.8-1.2
				c-1.2,0-2.1,0.4-2.9,1.2C284.7,336,284.3,337,284.2,338.2z"/>
		</g>
		<g>
			<path class="st0" d="M321,332.2c0,0.5-0.2,1.1-0.5,1.8c-0.3,0.7-0.7,1.4-1.1,2c-0.3-0.3-0.8-0.6-1.3-0.9
				c-0.5-0.3-1.1-0.6-1.7-0.8c-0.6-0.3-1.3-0.5-1.9-0.6c-0.7-0.2-1.4-0.3-2-0.3c-0.4,0-0.8,0-1.2,0.1c-0.4,0.1-0.8,0.2-1.1,0.3
				c-0.3,0.2-0.6,0.4-0.8,0.7c-0.2,0.3-0.3,0.7-0.3,1.2c0,1.2,1.3,2,3.8,2.6c1,0.2,2.1,0.5,3.1,0.8s1.9,0.8,2.7,1.4s1.5,1.3,2,2.2
				c0.5,0.9,0.7,2,0.7,3.4c0,1.4-0.3,2.6-0.8,3.7c-0.5,1.1-1.3,2-2.2,2.7c-0.9,0.7-2,1.3-3.3,1.7c-1.3,0.4-2.6,0.6-4.1,0.6
				c-1.5,0-2.8-0.1-3.8-0.3s-1.9-0.5-2.6-0.8c-0.5-0.2-1-0.5-1.6-0.9c-0.6-0.4-0.9-0.9-0.9-1.6c0-0.6,0.2-1.2,0.5-1.8
				c0.3-0.6,0.7-1.3,1.2-2c0.3,0.3,0.7,0.6,1.2,0.9c0.5,0.3,1,0.6,1.6,0.8c0.6,0.3,1.2,0.5,1.9,0.6c0.7,0.2,1.4,0.3,2.1,0.3
				c0.4,0,0.9,0,1.4-0.1c0.5-0.1,0.9-0.2,1.3-0.4c0.4-0.2,0.7-0.5,0.9-0.8c0.2-0.3,0.4-0.8,0.4-1.3c0-1-0.4-1.7-1.2-2.1
				c-0.8-0.4-1.9-0.8-3.5-1.1c-1-0.2-2-0.5-2.9-0.8c-0.9-0.3-1.8-0.8-2.5-1.4c-0.7-0.6-1.3-1.3-1.7-2.1c-0.4-0.9-0.6-1.9-0.6-3.1
				s0.3-2.3,0.8-3.3c0.6-0.9,1.3-1.7,2.2-2.4c0.9-0.7,2-1.1,3.2-1.5c1.2-0.3,2.5-0.5,3.8-0.5c1.4,0,2.6,0.1,3.7,0.3
				c1.1,0.2,2,0.5,2.8,0.8C320.2,330.4,321,331.2,321,332.2z"/>
			<path class="st0" d="M311,355.3c-1.6,0-2.9-0.1-4-0.4c-1.1-0.2-2-0.5-2.8-0.8c-0.5-0.2-1.1-0.5-1.7-1c-0.8-0.5-1.2-1.3-1.2-2.2
				c0-0.7,0.2-1.4,0.6-2.2c0.4-0.6,0.8-1.3,1.2-2l0.5-0.7l0.6,0.6c0.3,0.2,0.6,0.5,1.1,0.8c0.4,0.3,0.9,0.5,1.5,0.8
				c0.6,0.2,1.2,0.4,1.8,0.6c1,0.3,2.1,0.3,3.2,0.1c0.4-0.1,0.7-0.2,1-0.3c0.3-0.2,0.5-0.4,0.7-0.6c0.2-0.2,0.2-0.5,0.2-0.9
				c0-1-0.5-1.3-0.8-1.5c-0.7-0.4-1.8-0.7-3.3-1c-1-0.2-2-0.5-3-0.9c-1-0.4-1.9-0.9-2.7-1.5c-0.8-0.6-1.5-1.4-1.9-2.4
				c-0.5-1-0.7-2.1-0.7-3.5c0-1.4,0.3-2.6,0.9-3.6c0.6-1,1.4-1.9,2.4-2.6c1-0.7,2.1-1.2,3.4-1.6c2.6-0.7,5.6-0.6,7.8-0.2
				c1.1,0.2,2.1,0.5,3,0.9c1.8,0.7,2.7,1.7,2.8,3l0,0c0,0.6-0.2,1.3-0.6,2.1c-0.3,0.7-0.7,1.4-1.1,2.1l-0.4,0.7l-0.6-0.5
				c-0.3-0.3-0.7-0.5-1.2-0.8c-0.5-0.3-1-0.5-1.6-0.8c-0.6-0.2-1.2-0.4-1.8-0.6c-0.9-0.2-1.9-0.3-3-0.2c-0.3,0-0.6,0.1-0.9,0.2
				c-0.2,0.1-0.4,0.3-0.6,0.5c-0.1,0.2-0.2,0.4-0.2,0.7c0,1,2,1.6,3.2,1.9c1,0.2,2.1,0.5,3.1,0.8c1.1,0.3,2.1,0.8,2.9,1.5
				c0.9,0.6,1.6,1.5,2.2,2.5c0.6,1,0.8,2.2,0.8,3.7c0,1.5-0.3,2.8-0.9,4c-0.6,1.2-1.4,2.1-2.4,2.9c-1,0.8-2.2,1.4-3.5,1.8
				C314,355.1,312.6,355.3,311,355.3z M304,348.2c-0.3,0.4-0.5,0.9-0.7,1.3c-0.3,0.5-0.4,1-0.4,1.5c0,0.5,0.2,0.8,0.5,1
				c0.5,0.4,1,0.6,1.4,0.8c0.6,0.3,1.5,0.5,2.5,0.8c1,0.2,2.2,0.3,3.7,0.3c1.4,0,2.7-0.2,3.9-0.5c1.2-0.4,2.2-0.9,3-1.5
				c0.8-0.7,1.5-1.5,2-2.4c0.5-1,0.7-2.1,0.7-3.3c0-1.2-0.2-2.2-0.7-3c-0.4-0.8-1-1.5-1.8-2c-0.7-0.5-1.6-1-2.5-1.3
				c-1-0.3-2-0.6-3-0.8c-1.1-0.2-4.3-1-4.3-3.3c0-0.6,0.2-1.2,0.5-1.6c0.3-0.4,0.7-0.7,1.1-0.9c0.4-0.2,0.8-0.3,1.3-0.4
				c1.3-0.2,2.4-0.1,3.5,0.2c0.7,0.2,1.4,0.4,2,0.7c0.6,0.3,1.2,0.6,1.8,0.9c0.2,0.1,0.5,0.3,0.7,0.4c0.2-0.4,0.4-0.8,0.6-1.2
				c0.3-0.6,0.4-1.1,0.4-1.5c-0.1-0.7-0.7-1.3-1.9-1.8c-0.8-0.3-1.7-0.6-2.7-0.8c-2-0.4-4.8-0.5-7.1,0.2c-1.1,0.3-2.1,0.8-2.9,1.4
				c-0.8,0.6-1.5,1.3-2,2.2c-0.5,0.8-0.7,1.8-0.7,2.9c0,1.1,0.2,2.1,0.6,2.8c0.4,0.8,0.9,1.4,1.5,1.9c0.7,0.5,1.4,0.9,2.3,1.3
				c0.9,0.3,1.8,0.6,2.8,0.8c1.6,0.3,2.8,0.7,3.7,1.2c1,0.6,1.5,1.5,1.5,2.8c0,0.7-0.2,1.3-0.5,1.8c-0.3,0.4-0.7,0.8-1.1,1
				c-0.4,0.3-1,0.4-1.5,0.5c-1.3,0.2-2.6,0.1-3.8-0.2c-0.7-0.2-1.4-0.4-2-0.7c-0.6-0.3-1.2-0.6-1.7-0.9
				C304.4,348.4,304.2,348.3,304,348.2z"/>
		</g>
		<g>
			<path class="st0" d="M326.1,350.1c-0.2-0.7-0.4-1.4-0.5-2.2c-0.1-0.8-0.1-1.5-0.1-2.3v-24c0.2,0,0.5-0.1,0.8-0.1
				c0.2,0,0.5-0.1,0.8-0.1s0.6,0,0.8,0c0.6,0,1.1,0.1,1.7,0.2s1,0.3,1.5,0.6s0.8,0.7,1.1,1.3c0.3,0.5,0.4,1.2,0.4,2.1v3.6h7.2v5.3
				h-7.2v11c0,2.4,1,3.6,2.9,3.6c0.5,0,0.9-0.1,1.4-0.2c0.4-0.2,0.8-0.3,1.2-0.5c0.3-0.2,0.6-0.4,0.9-0.6c0.3-0.2,0.4-0.4,0.5-0.5
				c0.5,0.8,0.9,1.4,1.2,2c0.3,0.6,0.4,1.1,0.4,1.6c0,0.5-0.2,0.9-0.5,1.3c-0.4,0.4-0.9,0.8-1.5,1.2s-1.4,0.7-2.4,0.9
				c-0.9,0.2-1.9,0.3-3,0.3c-2.1,0-3.8-0.4-5-1.2S326.6,351.4,326.1,350.1z"/>
			<path class="st0" d="M333.6,355.3c-2.3,0-4.1-0.5-5.4-1.4c-1.3-0.9-2.2-2.1-2.8-3.6l0,0c-0.3-0.7-0.4-1.5-0.5-2.3
				c-0.1-0.8-0.1-1.6-0.1-2.3v-24.6l0.6-0.1c0.2,0,0.5-0.1,0.8-0.1c0.2,0,0.5-0.1,0.8-0.1c0.9-0.1,1.8,0,2.7,0.1
				c0.6,0.1,1.2,0.4,1.8,0.7c0.5,0.4,1,0.9,1.3,1.5c0.3,0.6,0.5,1.5,0.5,2.4v2.9h7.2v6.7h-7.2v10.3c0,2.6,1.2,2.9,2.2,2.9
				c0.4,0,0.8-0.1,1.1-0.2c0.4-0.1,0.7-0.3,1.1-0.5c0.3-0.2,0.6-0.3,0.8-0.5c0.2-0.2,0.4-0.3,0.5-0.4l0.6-0.6l0.5,0.7
				c0.5,0.8,0.9,1.5,1.2,2.1c0.3,0.7,0.5,1.3,0.5,1.9c0,0.6-0.2,1.2-0.7,1.8c-0.4,0.5-1,1-1.7,1.4c-0.7,0.4-1.6,0.7-2.6,1
				C335.8,355.2,334.7,355.3,333.6,355.3z M326.8,349.8c0.4,1.2,1.2,2.2,2.2,2.9c1.1,0.7,2.6,1.1,4.6,1.1c1,0,2-0.1,2.9-0.3
				c0.9-0.2,1.6-0.5,2.2-0.8c0.6-0.3,1-0.7,1.3-1c0.3-0.3,0.4-0.6,0.4-0.9c0-0.4-0.1-0.8-0.3-1.2c-0.2-0.4-0.4-0.8-0.7-1.2
				c-0.3,0.2-0.6,0.4-0.9,0.6c-0.4,0.2-0.8,0.4-1.3,0.6c-0.5,0.2-1.1,0.3-1.6,0.3c-1.4,0-3.7-0.6-3.7-4.3v-11.7h7.2v-3.8h-7.2v-4.3
				c0-0.7-0.1-1.3-0.3-1.8c-0.2-0.4-0.5-0.8-0.9-1c-0.4-0.3-0.8-0.4-1.2-0.5c-0.8-0.1-1.5-0.2-2.3-0.1c-0.3,0-0.5,0-0.7,0.1
				c-0.1,0-0.1,0-0.2,0v23.3c0,0.7,0,1.5,0.1,2.2C326.4,348.5,326.6,349.2,326.8,349.8z"/>
		</g>
		<g>
			<path class="st0" d="M365.2,347.8c0,2.7,0.4,4.7,1.2,5.9c-0.6,0.2-1.2,0.4-1.7,0.5c-0.5,0.1-1.1,0.2-1.7,0.2
				c-1.2,0-2.2-0.2-2.8-0.7s-1-1.2-1.2-2.1c-0.8,0.8-1.8,1.5-3,2c-1.2,0.6-2.8,0.8-4.5,0.8c-0.9,0-1.9-0.1-2.8-0.4
				c-0.9-0.3-1.8-0.7-2.5-1.3c-0.8-0.6-1.4-1.4-1.9-2.3c-0.5-1-0.7-2.2-0.7-3.6c0-1.8,0.4-3.2,1.3-4.3c0.8-1.1,1.9-2,3.2-2.6
				c1.3-0.6,2.6-1.1,4.1-1.3c1.5-0.2,2.8-0.4,4.1-0.5c0.4,0,0.8-0.1,1.2-0.1s0.8,0,1.1,0v-0.9c0-1.3-0.4-2.3-1.1-2.8
				c-0.7-0.6-1.9-0.8-3.4-0.8c-1.5,0-2.8,0.2-3.9,0.7c-1.2,0.5-2.3,1-3.4,1.7c-0.5-0.6-0.9-1.2-1.2-1.9c-0.3-0.7-0.4-1.2-0.4-1.6
				c0-0.5,0.3-0.9,0.8-1.4c0.5-0.4,1.3-0.9,2.2-1.2c0.9-0.4,2-0.7,3.2-0.9s2.5-0.3,3.8-0.3c1.9,0,3.4,0.2,4.7,0.6
				c1.3,0.4,2.3,1,3.1,1.8c0.8,0.8,1.4,1.8,1.7,3c0.3,1.2,0.5,2.6,0.5,4.2V347.8z M358.6,341.8c-0.2,0-0.5,0-0.7,0
				c-0.2,0-0.5,0-0.7,0.1c-0.9,0.1-1.7,0.2-2.6,0.3c-0.8,0.1-1.6,0.4-2.2,0.7c-0.7,0.3-1.2,0.8-1.6,1.3c-0.4,0.6-0.6,1.3-0.6,2.1
				c0,1,0.3,1.8,0.8,2.5c0.5,0.7,1.5,1,2.8,1c0.7,0,1.3-0.1,1.9-0.3s1.1-0.4,1.5-0.7c0.4-0.3,0.8-0.6,1.1-0.9
				c0.3-0.3,0.4-0.6,0.4-0.9V341.8z"/>
			<path class="st0" d="M351.5,355.2c-1,0-2-0.1-3-0.4c-1-0.3-2-0.7-2.8-1.4c-0.8-0.6-1.5-1.5-2.1-2.6c-0.5-1.1-0.8-2.4-0.8-3.9
				c0-1.9,0.5-3.5,1.4-4.7c0.9-1.2,2.1-2.1,3.4-2.8c1.3-0.7,2.8-1.1,4.3-1.4c1.5-0.2,2.9-0.4,4.2-0.5c0.4,0,0.8-0.1,1.3-0.1h0.4
				v-0.2c0-1.1-0.3-1.8-0.8-2.3c-0.6-0.5-1.6-0.7-3-0.7c-1.4,0-2.6,0.2-3.7,0.7c-1.1,0.5-2.2,1-3.3,1.6l-0.5,0.3l-0.4-0.5
				c-0.5-0.6-1-1.4-1.3-2.1c-0.3-0.8-0.5-1.4-0.5-1.8c0-0.7,0.4-1.4,1.1-1.9c0.6-0.5,1.4-0.9,2.4-1.3c1-0.4,2.1-0.7,3.3-0.9
				c1.2-0.2,2.6-0.3,4-0.3c1.9,0,3.6,0.2,4.9,0.6c1.4,0.4,2.6,1.1,3.4,1.9c0.9,0.9,1.5,2,1.9,3.3c0.4,1.3,0.5,2.7,0.5,4.4v9.7
				c0,2.6,0.4,4.4,1.1,5.6l0.5,0.7l-0.8,0.3c-0.7,0.3-1.3,0.4-1.9,0.6c-0.6,0.1-1.2,0.2-1.8,0.2c-1.4,0-2.5-0.3-3.2-0.9
				c-0.5-0.4-0.9-0.8-1.1-1.4c-0.7,0.5-1.5,1-2.4,1.4C355,354.9,353.3,355.2,351.5,355.2z M357.4,338.9c-0.4,0-0.8,0-1.2,0
				c-1.2,0.1-2.6,0.2-4,0.5c-1.4,0.2-2.7,0.6-3.9,1.2c-1.2,0.6-2.2,1.4-2.9,2.4c-0.7,1-1.1,2.3-1.1,3.8c0,1.3,0.2,2.4,0.6,3.3
				c0.4,0.9,1,1.6,1.7,2.1c0.7,0.5,1.4,0.9,2.3,1.1c0.9,0.2,1.7,0.4,2.6,0.4c1.7,0,3.1-0.3,4.3-0.8c1.1-0.5,2.1-1.1,2.8-1.9l1-1
				l0.3,1.4c0.1,0.7,0.4,1.3,0.9,1.6c0.5,0.4,1.3,0.6,2.4,0.6c0.5,0,1.1,0,1.5-0.1c0.3-0.1,0.5-0.1,0.8-0.2
				c-0.6-1.3-0.9-3.2-0.9-5.5v-9.7c0-1.5-0.2-2.8-0.5-4c-0.3-1.1-0.8-2-1.5-2.7c-0.7-0.7-1.7-1.2-2.8-1.6c-1.2-0.4-2.7-0.5-4.5-0.5
				c-1.3,0-2.5,0.1-3.7,0.3c-1.2,0.2-2.2,0.5-3.1,0.8c-0.9,0.3-1.5,0.7-2,1.1c-0.4,0.3-0.5,0.6-0.5,0.8c0,0.1,0,0.5,0.4,1.3
				c0.2,0.5,0.4,0.9,0.7,1.3c0.9-0.5,1.9-1,2.9-1.4c1.2-0.5,2.7-0.8,4.2-0.8c1.8,0,3,0.3,3.9,1c0.9,0.7,1.3,1.8,1.3,3.4v1.7H357.4z
				 M353.8,350.5c-1.5,0-2.7-0.4-3.3-1.3c-0.7-0.8-1-1.8-1-2.9c0-1,0.3-1.9,0.8-2.5c0.5-0.6,1.1-1.2,1.8-1.5
				c0.7-0.4,1.5-0.6,2.5-0.8c0.9-0.1,1.7-0.2,2.6-0.3c0.2,0,0.5-0.1,0.8-0.1h1.4v6c0,0.4-0.2,0.9-0.5,1.3c-0.3,0.4-0.7,0.8-1.2,1.1
				c-0.5,0.3-1.1,0.6-1.7,0.7C355.2,350.5,354.5,350.5,353.8,350.5z M357.9,342.5c-0.2,0-0.4,0-0.6,0c-0.9,0.1-1.7,0.2-2.5,0.3
				c-0.8,0.1-1.4,0.3-2,0.6c-0.6,0.3-1,0.7-1.4,1.1c-0.3,0.4-0.5,1-0.5,1.7c0,0.8,0.2,1.5,0.7,2c0.4,0.5,1.2,0.7,2.2,0.7
				c0.6,0,1.1-0.1,1.7-0.2c0.5-0.2,1-0.4,1.4-0.6c0.4-0.2,0.7-0.5,0.9-0.7c0.2-0.3,0.2-0.4,0.2-0.5L357.9,342.5z"/>
		</g>
		<g>
			<path class="st0" d="M407.7,329.4c0,2.2-0.4,4.1-1.1,5.7s-1.8,2.8-3.1,3.7c-1.3,0.9-2.8,1.6-4.5,2c-1.7,0.4-3.5,0.6-5.4,0.6h-2.5
				v12.3H384v-34.4c1.5-0.2,3.1-0.3,4.8-0.4c1.6-0.1,3.1-0.1,4.4-0.1c5,0,8.7,0.9,11,2.7C406.5,323.3,407.7,325.9,407.7,329.4z
				 M400.4,329.7c0-2.1-0.6-3.6-1.9-4.5c-1.2-0.9-2.8-1.3-4.8-1.3c-1.1,0-2,0.1-2.8,0.2v12.4h1.7c2.5,0,4.4-0.5,5.8-1.5
				C399.8,334,400.4,332.3,400.4,329.7z"/>
			<path class="st0" d="M391.8,354.5h-8.5v-35.7l0.6-0.1c1.6-0.2,3.2-0.3,4.8-0.4c1.6-0.1,3.1-0.1,4.4-0.1c5.2,0,9,0.9,11.5,2.8
				c2.5,1.9,3.8,4.7,3.8,8.4c0,2.3-0.4,4.4-1.2,6c-0.8,1.6-1.9,3-3.3,4c-1.4,1-3,1.7-4.8,2.2c-1.8,0.4-3.6,0.6-5.6,0.6h-1.8V354.5z
				 M384.7,353.1h5.6v-12.3h3.2c1.8,0,3.6-0.2,5.2-0.6c1.6-0.4,3-1,4.3-1.9c1.2-0.9,2.2-2,2.9-3.5c0.7-1.4,1.1-3.2,1.1-5.4
				c0-3.2-1.1-5.6-3.2-7.3c-2.2-1.7-5.8-2.5-10.6-2.5c-1.3,0-2.8,0-4.4,0.1c-1.4,0.1-2.7,0.2-4.1,0.3V353.1z M392.7,337.2h-2.4
				v-13.7l0.6-0.1c0.8-0.1,1.8-0.2,2.9-0.2c2.1,0,3.8,0.5,5.2,1.5c1.4,1,2.2,2.7,2.2,5.1c0,2.7-0.8,4.7-2.3,5.8
				C397.5,336.6,395.4,337.2,392.7,337.2z M391.7,335.7h1c2.4,0,4.1-0.4,5.3-1.3c1.1-0.8,1.7-2.4,1.7-4.7c0-1.9-0.5-3.1-1.6-3.9
				c-1.1-0.8-2.6-1.2-4.4-1.2c-0.8,0-1.5,0-2.1,0.1V335.7z"/>
		</g>
		<g>
			<path class="st0" d="M430.8,347.8c0,2.7,0.4,4.7,1.2,5.9c-0.6,0.2-1.2,0.4-1.7,0.5c-0.5,0.1-1.1,0.2-1.7,0.2
				c-1.2,0-2.2-0.2-2.8-0.7s-1-1.2-1.2-2.1c-0.8,0.8-1.8,1.5-3,2c-1.2,0.6-2.8,0.8-4.5,0.8c-0.9,0-1.9-0.1-2.8-0.4
				c-0.9-0.3-1.8-0.7-2.5-1.3c-0.8-0.6-1.4-1.4-1.9-2.3c-0.5-1-0.7-2.2-0.7-3.6c0-1.8,0.4-3.2,1.3-4.3c0.8-1.1,1.9-2,3.2-2.6
				c1.3-0.6,2.6-1.1,4.1-1.3c1.5-0.2,2.8-0.4,4.1-0.5c0.4,0,0.8-0.1,1.2-0.1s0.8,0,1.1,0v-0.9c0-1.3-0.4-2.3-1.1-2.8
				c-0.7-0.6-1.9-0.8-3.4-0.8c-1.5,0-2.8,0.2-3.9,0.7c-1.2,0.5-2.3,1-3.4,1.7c-0.5-0.6-0.9-1.2-1.2-1.9c-0.3-0.7-0.4-1.2-0.4-1.6
				c0-0.5,0.3-0.9,0.8-1.4c0.5-0.4,1.3-0.9,2.2-1.2c0.9-0.4,2-0.7,3.2-0.9s2.5-0.3,3.8-0.3c1.9,0,3.4,0.2,4.7,0.6
				c1.3,0.4,2.3,1,3.1,1.8c0.8,0.8,1.4,1.8,1.7,3c0.3,1.2,0.5,2.6,0.5,4.2V347.8z M424.2,341.8c-0.2,0-0.5,0-0.7,0
				c-0.2,0-0.5,0-0.7,0.1c-0.9,0.1-1.7,0.2-2.6,0.3c-0.8,0.1-1.6,0.4-2.2,0.7c-0.7,0.3-1.2,0.8-1.6,1.3c-0.4,0.6-0.6,1.3-0.6,2.1
				c0,1,0.3,1.8,0.8,2.5c0.5,0.7,1.5,1,2.8,1c0.7,0,1.3-0.1,1.9-0.3s1.1-0.4,1.5-0.7c0.4-0.3,0.8-0.6,1.1-0.9
				c0.3-0.3,0.4-0.6,0.4-0.9V341.8z"/>
			<path class="st0" d="M417,355.2c-1,0-2-0.1-3-0.4c-1-0.3-2-0.7-2.8-1.4c-0.8-0.6-1.5-1.5-2.1-2.6c-0.5-1.1-0.8-2.4-0.8-3.9
				c0-1.9,0.5-3.5,1.4-4.7c0.9-1.2,2.1-2.1,3.4-2.8c1.3-0.7,2.8-1.1,4.3-1.4c1.5-0.2,2.9-0.4,4.2-0.5c0.4,0,0.8-0.1,1.3-0.1h0.4
				v-0.2c0-1.1-0.3-1.8-0.8-2.3c-0.6-0.5-1.6-0.7-3-0.7c-1.4,0-2.6,0.2-3.7,0.7c-1.1,0.5-2.2,1-3.3,1.6l-0.5,0.3l-0.4-0.5
				c-0.5-0.6-1-1.4-1.3-2.1c-0.3-0.8-0.5-1.4-0.5-1.8c0-0.7,0.4-1.4,1.1-1.9c0.6-0.5,1.4-0.9,2.4-1.3c1-0.4,2.1-0.7,3.3-0.9
				c1.2-0.2,2.6-0.3,4-0.3c1.9,0,3.6,0.2,4.9,0.6c1.4,0.4,2.6,1.1,3.4,1.9c0.9,0.9,1.5,2,1.9,3.3c0.4,1.3,0.5,2.7,0.5,4.4v9.7
				c0,2.6,0.4,4.4,1.1,5.6l0.5,0.7l-0.8,0.3c-0.7,0.3-1.3,0.4-1.9,0.6c-0.6,0.1-1.2,0.2-1.8,0.2c-1.4,0-2.5-0.3-3.2-0.9
				c-0.5-0.4-0.9-0.8-1.1-1.4c-0.7,0.5-1.5,1-2.4,1.4C420.5,354.9,418.9,355.2,417,355.2z M423,338.9c-0.4,0-0.8,0-1.2,0
				c-1.2,0.1-2.6,0.2-4,0.5c-1.4,0.2-2.7,0.6-3.9,1.2c-1.2,0.6-2.2,1.4-2.9,2.4c-0.7,1-1.1,2.3-1.1,3.8c0,1.3,0.2,2.4,0.6,3.3
				c0.4,0.9,1,1.6,1.7,2.1c0.7,0.5,1.4,0.9,2.3,1.1c0.9,0.2,1.7,0.4,2.6,0.4c1.7,0,3.1-0.3,4.3-0.8c1.1-0.5,2.1-1.1,2.8-1.9l1-1
				l0.3,1.4c0.1,0.7,0.4,1.3,0.9,1.6c0.5,0.4,1.3,0.6,2.4,0.6c0.5,0,1.1,0,1.5-0.1c0.3-0.1,0.5-0.1,0.8-0.2
				c-0.6-1.3-0.9-3.2-0.9-5.5v-9.7c0-1.5-0.2-2.8-0.5-4c-0.3-1.1-0.8-2-1.5-2.7c-0.7-0.7-1.7-1.2-2.8-1.6c-1.2-0.4-2.7-0.5-4.5-0.5
				c-1.3,0-2.5,0.1-3.7,0.3c-1.2,0.2-2.2,0.5-3.1,0.8c-0.9,0.3-1.5,0.7-2,1.1c-0.4,0.3-0.5,0.6-0.5,0.8c0,0.1,0,0.5,0.4,1.3
				c0.2,0.5,0.4,0.9,0.7,1.3c0.9-0.5,1.9-1,2.9-1.4c1.2-0.5,2.7-0.8,4.2-0.8c1.8,0,3,0.3,3.9,1c0.9,0.7,1.3,1.8,1.3,3.4v1.7H423z
				 M419.3,350.5c-1.5,0-2.7-0.4-3.3-1.3c-0.7-0.8-1-1.8-1-2.9c0-1,0.3-1.9,0.8-2.5c0.5-0.6,1.1-1.2,1.8-1.5
				c0.7-0.4,1.5-0.6,2.5-0.8c0.9-0.1,1.7-0.2,2.6-0.3c0.2,0,0.5-0.1,0.8-0.1h1.4v6c0,0.4-0.2,0.9-0.5,1.3c-0.3,0.4-0.7,0.8-1.2,1.1
				c-0.5,0.3-1.1,0.6-1.7,0.7C420.8,350.5,420.1,350.5,419.3,350.5z M423.5,342.5c-0.2,0-0.4,0-0.6,0c-0.9,0.1-1.7,0.2-2.5,0.3
				c-0.8,0.1-1.4,0.3-2,0.6c-0.6,0.3-1,0.7-1.4,1.1c-0.3,0.4-0.5,1-0.5,1.7c0,0.8,0.2,1.5,0.7,2c0.4,0.5,1.2,0.7,2.2,0.7
				c0.6,0,1.1-0.1,1.7-0.2c0.5-0.2,1-0.4,1.4-0.6c0.4-0.2,0.7-0.5,0.9-0.7c0.2-0.3,0.2-0.4,0.2-0.5L423.5,342.5z"/>
		</g>
		<g>
			<path class="st0" d="M449.8,349.4c0.8,0,1.4-0.1,2.1-0.3c0.6-0.2,1.2-0.4,1.7-0.6s0.9-0.5,1.2-0.8c0.3-0.3,0.6-0.5,0.8-0.7
				c0.4,0.4,0.8,1,1.2,1.8c0.4,0.8,0.6,1.5,0.6,2c0,0.3-0.1,0.7-0.2,1s-0.4,0.7-0.9,1c-0.7,0.5-1.6,0.9-2.8,1.3
				c-1.2,0.4-2.7,0.6-4.6,0.6c-1.2,0-2.6-0.2-4-0.5c-1.4-0.3-2.8-1-4-2c-1.2-1-2.3-2.3-3.1-4c-0.8-1.7-1.2-3.9-1.2-6.7
				c0-2.6,0.4-4.8,1.3-6.4s1.9-3,3.2-3.9s2.6-1.6,4.1-2s2.7-0.5,3.8-0.5c1.4,0,2.7,0.2,3.9,0.5s2.2,0.7,3,1.2
				c0.7,0.4,1.1,0.8,1.4,1.2c0.3,0.4,0.4,0.8,0.4,1.3c0,0.5-0.2,1.1-0.5,1.8c-0.3,0.7-0.7,1.4-1.2,1.9c-0.6-0.6-1.4-1.2-2.4-1.8
				c-1.1-0.6-2.3-0.9-3.6-0.9c-2.3,0-3.9,0.7-4.9,2.1c-1,1.4-1.4,3.2-1.4,5.3c0,1.1,0.1,2.1,0.3,3.1c0.2,1,0.6,1.8,1.1,2.5
				s1.1,1.3,1.9,1.7C447.6,349.2,448.6,349.4,449.8,349.4z"/>
			<path class="st0" d="M448.8,355.4c-1.3,0-2.7-0.2-4.2-0.5c-1.5-0.4-3-1.1-4.3-2.1c-1.3-1-2.4-2.5-3.3-4.3c-0.9-1.8-1.3-4.1-1.3-7
				c0-2.7,0.5-5,1.4-6.7c0.9-1.7,2.1-3.1,3.4-4.2c1.3-1,2.8-1.7,4.3-2.1c1.5-0.4,2.8-0.6,4-0.6c1.5,0,2.8,0.2,4.1,0.5
				c1.3,0.3,2.4,0.8,3.2,1.3c0.7,0.5,1.3,0.9,1.6,1.4c0.3,0.5,0.5,1.1,0.5,1.7c0,0.6-0.2,1.3-0.5,2.1c-0.3,0.8-0.8,1.5-1.3,2.1
				l-0.5,0.6l-0.6-0.6c-0.5-0.5-1.3-1.1-2.3-1.6c-1-0.5-2-0.8-3.2-0.8c-2,0-3.4,0.6-4.3,1.8c-0.9,1.3-1.3,2.9-1.3,4.9
				c0,1,0.1,2,0.3,2.9c0.2,0.9,0.5,1.6,0.9,2.3c0.4,0.6,1,1.1,1.7,1.5s1.6,0.5,2.6,0.5c0.7,0,1.3-0.1,1.9-0.2
				c0.6-0.2,1.1-0.4,1.5-0.6c0.4-0.2,0.8-0.5,1.1-0.7c0.3-0.3,0.5-0.5,0.7-0.7l0.5-0.6l0.6,0.6c0.4,0.5,0.8,1.1,1.3,2
				c0.5,0.9,0.7,1.7,0.7,2.3c0,0.4-0.1,0.9-0.3,1.3c-0.2,0.4-0.5,0.9-1.1,1.3c-0.7,0.5-1.7,1-3,1.5
				C452.3,355.2,450.7,355.4,448.8,355.4z M448.8,329.4c-1.1,0-2.3,0.2-3.7,0.5c-1.3,0.3-2.6,1-3.8,1.9c-1.2,0.9-2.2,2.1-3,3.7
				c-0.8,1.5-1.2,3.6-1.2,6.1c0,2.6,0.4,4.8,1.2,6.4c0.8,1.6,1.7,2.9,2.9,3.7c1.2,0.9,2.4,1.5,3.8,1.8c1.4,0.3,2.7,0.5,3.9,0.5
				c1.8,0,3.2-0.2,4.4-0.6c1.1-0.4,2-0.8,2.6-1.2c0.4-0.3,0.6-0.6,0.6-0.7c0.1-0.2,0.2-0.5,0.2-0.7c0-0.4-0.2-1-0.5-1.7
				c-0.2-0.4-0.4-0.8-0.6-1c-0.1,0.1-0.2,0.1-0.2,0.2c-0.4,0.3-0.8,0.6-1.4,0.9c-0.5,0.3-1.1,0.5-1.8,0.7c-0.7,0.2-1.4,0.3-2.3,0.3
				c-1.3,0-2.4-0.2-3.3-0.7c-0.9-0.5-1.6-1.1-2.2-1.9c-0.6-0.8-0.9-1.7-1.2-2.8c-0.2-1-0.3-2.1-0.3-3.2c0-2.3,0.5-4.2,1.6-5.8
				c1.1-1.6,2.9-2.4,5.4-2.4c1.4,0,2.7,0.3,3.9,1c0.8,0.4,1.5,0.9,2,1.3c0.2-0.4,0.5-0.7,0.6-1.2c0.3-0.6,0.4-1.1,0.4-1.5
				c0-0.4-0.1-0.7-0.3-0.9c-0.1-0.2-0.5-0.5-1.2-1c-0.7-0.5-1.7-0.9-2.8-1.2C451.4,329.5,450.1,329.4,448.8,329.4z"/>
		</g>
		<g>
			<path class="st0" d="M468.8,354.1c0,0-0.3,0.1-0.8,0.1c-0.5,0.1-1.1,0.1-1.6,0.1c-0.6,0-1.1-0.1-1.7-0.2c-0.6-0.1-1-0.3-1.5-0.7
				c-0.4-0.3-0.8-0.8-1.1-1.3c-0.3-0.5-0.4-1.3-0.4-2.1v-20.7c0,0,0.3-0.1,0.8-0.1c0.5-0.1,1-0.1,1.6-0.1c0.5,0,1.1,0.1,1.7,0.2
				c0.5,0.1,1,0.3,1.5,0.6c0.4,0.3,0.8,0.7,1.1,1.2c0.3,0.5,0.4,1.2,0.4,2.1V354.1z M467.9,324.7c-0.8,0.9-1.8,1.3-2.9,1.3
				c-0.5,0-1.1-0.1-1.7-0.3c-0.7-0.2-1.1-0.4-1.4-0.7l4.2-6c0.5-0.7,1-1.1,1.5-1.5c0.5-0.3,1.1-0.5,1.8-0.5c0.6,0,1.3,0.2,2.1,0.6
				s1.4,0.8,1.8,1.1L467.9,324.7z"/>
			<path class="st0" d="M466.4,355c-0.6,0-1.2-0.1-1.8-0.2c-0.7-0.1-1.2-0.4-1.8-0.8c-0.5-0.4-1-0.9-1.3-1.6
				c-0.3-0.6-0.5-1.5-0.5-2.4v-20.7c0-0.7,0.7-0.8,1.4-0.8c1.1-0.1,2.3-0.1,3.5,0.1c0.6,0.1,1.2,0.4,1.8,0.7c0.6,0.4,1,0.9,1.3,1.5
				c0.3,0.6,0.5,1.4,0.5,2.4v20.9c0,0.7-0.7,0.8-1.4,0.8C467.6,355,467,355,466.4,355z M462.5,330V350c0,0.7,0.1,1.4,0.3,1.8
				c0.2,0.4,0.5,0.8,0.9,1.1c0.4,0.3,0.8,0.5,1.2,0.6c1,0.2,2.1,0.2,3,0.1c0,0,0.1,0,0.1,0v-20.3c0-0.7-0.1-1.3-0.3-1.8
				c-0.2-0.4-0.5-0.7-0.8-1c-0.4-0.2-0.8-0.4-1.2-0.5c-1-0.2-2.1-0.2-3-0.1C462.6,330,462.5,330,462.5,330z M465,326.7
				c-0.6,0-1.2-0.1-1.9-0.3c-0.8-0.2-1.3-0.5-1.7-0.9l-0.5-0.4l4.6-6.5c0.5-0.7,1.1-1.3,1.7-1.7c1.1-0.7,2.7-0.9,4.6,0
				c0.8,0.4,1.5,0.8,2,1.2l0.6,0.5l-5.9,6.5C467.5,326.2,466.3,326.7,465,326.7z M462.9,324.8c0.2,0.1,0.4,0.2,0.6,0.2
				c0.6,0.2,1.1,0.3,1.5,0.3c0.9,0,1.7-0.4,2.4-1.1l0,0l4.9-5.3c-0.3-0.2-0.7-0.4-1.1-0.6c-1.4-0.7-2.5-0.6-3.2-0.1
				c-0.4,0.3-0.9,0.7-1.3,1.3L462.9,324.8z"/>
		</g>
		<g>
			<path class="st0" d="M497.5,354.1c0,0-0.3,0.1-0.8,0.1c-0.5,0.1-1,0.1-1.6,0.1s-1.1-0.1-1.7-0.2c-0.6-0.1-1-0.3-1.5-0.7
				c-0.4-0.3-0.8-0.8-1.1-1.3c-0.3-0.5-0.4-1.3-0.4-2.1v-15.5h-8.1v19.3h-7v-26c0-1.3,0.1-2.6,0.3-3.7c0.5-2.3,1.7-4.1,3.6-5.4
				c1.9-1.3,4.4-1.9,7.5-1.9c1.3,0,2.6,0.1,3.9,0.4c1.3,0.2,2.4,0.6,3.3,1.1c1.2,0.7,1.9,1.5,1.9,2.4c0,0.6-0.2,1.2-0.5,2
				c-0.3,0.7-0.8,1.4-1.2,1.9c-0.6-0.6-1.5-1.1-2.7-1.6s-2.5-0.7-4-0.7c-1.7,0-2.9,0.4-3.8,1.1s-1.3,2.1-1.3,4.2v1.7h15.1V354.1z"/>
			<path class="st0" d="M495.1,355c-0.6,0-1.2-0.1-1.8-0.2c-0.7-0.1-1.2-0.4-1.8-0.8c-0.5-0.4-1-0.9-1.3-1.6
				c-0.3-0.6-0.5-1.5-0.5-2.4v-14.8h-6.6v19.3h-8.5v-26.7c0-1.4,0.1-2.7,0.3-3.8c0.5-2.5,1.8-4.5,3.9-5.9c2-1.3,4.7-2,7.9-2
				c1.3,0,2.7,0.1,4.1,0.4c1.4,0.3,2.6,0.6,3.5,1.2c1.5,0.8,2.2,1.8,2.2,3.1c0,0.7-0.2,1.5-0.6,2.3c-0.4,0.8-0.8,1.5-1.3,2.1
				l-0.5,0.6l-0.5-0.5c-0.5-0.5-1.3-1-2.4-1.4c-1.1-0.4-2.3-0.6-3.7-0.6c-1.5,0-2.6,0.3-3.3,0.9c-0.7,0.6-1.1,1.8-1.1,3.6v1h15.1
				v25.6c0,0.7-0.7,0.8-1.4,0.8C496.3,355,495.7,355,495.1,355z M481.7,333.8h9.5V350c0,0.7,0.1,1.4,0.3,1.8
				c0.2,0.4,0.5,0.8,0.9,1.1c0.4,0.3,0.8,0.5,1.2,0.6c1,0.2,2.1,0.2,3,0.1c0,0,0.1,0,0.1,0v-23.6h-15.1v-2.4c0-2.3,0.5-3.8,1.6-4.7
				c1-0.8,2.4-1.3,4.3-1.3c1.5,0,2.9,0.3,4.2,0.7c0.9,0.4,1.7,0.8,2.3,1.2c0.3-0.4,0.5-0.8,0.7-1.2c0.3-0.6,0.4-1.2,0.4-1.7
				c0-0.3,0-1-1.5-1.8c-0.8-0.4-1.9-0.8-3.1-1c-1.3-0.2-2.5-0.3-3.8-0.3c-2.9,0-5.3,0.6-7.1,1.8c-1.8,1.2-2.9,2.8-3.3,5
				c-0.2,1-0.3,2.2-0.3,3.5v25.3h5.6V333.8z"/>
		</g>
		<g>
			<path class="st0" d="M516.5,349.4c0.8,0,1.4-0.1,2.1-0.3c0.6-0.2,1.2-0.4,1.7-0.6s0.9-0.5,1.2-0.8c0.3-0.3,0.6-0.5,0.8-0.7
				c0.4,0.4,0.8,1,1.2,1.8c0.4,0.8,0.6,1.5,0.6,2c0,0.3-0.1,0.7-0.2,1s-0.4,0.7-0.9,1c-0.7,0.5-1.6,0.9-2.8,1.3
				c-1.2,0.4-2.7,0.6-4.6,0.6c-1.2,0-2.6-0.2-4-0.5c-1.4-0.3-2.8-1-4-2c-1.2-1-2.3-2.3-3.1-4c-0.8-1.7-1.2-3.9-1.2-6.7
				c0-2.6,0.4-4.8,1.3-6.4s1.9-3,3.2-3.9s2.6-1.6,4.1-2s2.7-0.5,3.8-0.5c1.4,0,2.7,0.2,3.9,0.5s2.2,0.7,3,1.2
				c0.7,0.4,1.1,0.8,1.4,1.2c0.3,0.4,0.4,0.8,0.4,1.3c0,0.5-0.2,1.1-0.5,1.8c-0.3,0.7-0.7,1.4-1.2,1.9c-0.6-0.6-1.4-1.2-2.4-1.8
				c-1.1-0.6-2.3-0.9-3.6-0.9c-2.3,0-3.9,0.7-4.9,2.1c-1,1.4-1.4,3.2-1.4,5.3c0,1.1,0.1,2.1,0.3,3.1c0.2,1,0.6,1.8,1.1,2.5
				s1.1,1.3,1.9,1.7C514.3,349.2,515.3,349.4,516.5,349.4z"/>
			<path class="st0" d="M515.5,355.4c-1.3,0-2.7-0.2-4.2-0.5c-1.5-0.4-3-1.1-4.3-2.1c-1.3-1-2.4-2.5-3.3-4.3c-0.9-1.8-1.3-4.1-1.3-7
				c0-2.7,0.5-5,1.4-6.7c0.9-1.7,2.1-3.1,3.4-4.2c1.3-1,2.8-1.7,4.3-2.1c1.5-0.4,2.8-0.6,4-0.6c1.5,0,2.8,0.2,4.1,0.5
				c1.3,0.3,2.4,0.8,3.2,1.3c0.7,0.5,1.3,0.9,1.6,1.4c0.3,0.5,0.5,1.1,0.5,1.7c0,0.6-0.2,1.3-0.5,2.1c-0.3,0.8-0.8,1.5-1.3,2.1
				l-0.5,0.6l-0.6-0.6c-0.5-0.5-1.3-1.1-2.3-1.6c-1-0.5-2-0.8-3.2-0.8c-2,0-3.4,0.6-4.3,1.8c-0.9,1.3-1.3,2.9-1.3,4.9
				c0,1,0.1,2,0.3,2.9c0.2,0.9,0.5,1.6,0.9,2.3c0.4,0.6,1,1.1,1.7,1.5s1.6,0.5,2.6,0.5c0.7,0,1.3-0.1,1.9-0.2
				c0.6-0.2,1.1-0.4,1.5-0.6c0.4-0.2,0.8-0.5,1.1-0.7c0.3-0.3,0.5-0.5,0.7-0.7l0.5-0.6l0.6,0.6c0.4,0.5,0.8,1.1,1.3,2
				c0.5,0.9,0.7,1.7,0.7,2.3c0,0.4-0.1,0.9-0.3,1.3c-0.2,0.4-0.5,0.9-1.1,1.3c-0.7,0.5-1.7,1-3,1.5
				C519,355.2,517.4,355.4,515.5,355.4z M515.5,329.4c-1.1,0-2.3,0.2-3.7,0.5c-1.3,0.3-2.6,1-3.8,1.9c-1.2,0.9-2.2,2.1-3,3.7
				c-0.8,1.5-1.2,3.6-1.2,6.1c0,2.6,0.4,4.8,1.2,6.4c0.8,1.6,1.7,2.9,2.9,3.7c1.2,0.9,2.4,1.5,3.8,1.8c1.4,0.3,2.7,0.5,3.9,0.5
				c1.8,0,3.2-0.2,4.4-0.6c1.1-0.4,2-0.8,2.6-1.2c0.4-0.3,0.6-0.6,0.6-0.7c0.1-0.2,0.2-0.5,0.2-0.7c0-0.4-0.2-1-0.5-1.7
				c-0.2-0.4-0.4-0.8-0.6-1c-0.1,0.1-0.2,0.1-0.2,0.2c-0.4,0.3-0.8,0.6-1.4,0.9c-0.5,0.3-1.1,0.5-1.8,0.7c-0.7,0.2-1.4,0.3-2.3,0.3
				c-1.3,0-2.4-0.2-3.3-0.7c-0.9-0.5-1.6-1.1-2.2-1.9c-0.6-0.8-0.9-1.7-1.2-2.8c-0.2-1-0.3-2.1-0.3-3.2c0-2.3,0.5-4.2,1.6-5.8
				c1.1-1.6,2.9-2.4,5.4-2.4c1.4,0,2.7,0.3,3.9,1c0.8,0.4,1.5,0.9,2,1.3c0.2-0.4,0.5-0.7,0.6-1.2c0.3-0.6,0.4-1.1,0.4-1.5
				c0-0.4-0.1-0.7-0.3-0.9c-0.1-0.2-0.5-0.5-1.2-1c-0.7-0.5-1.7-0.9-2.8-1.2C518.1,329.5,516.8,329.4,515.5,329.4z"/>
		</g>
		<g>
			<path class="st0" d="M551.7,341.5c0,1.7-0.2,3.4-0.6,5c-0.4,1.6-1.1,3-2.1,4.2c-1,1.2-2.2,2.2-3.8,2.9s-3.4,1.1-5.6,1.1
				s-4.1-0.4-5.6-1.1s-2.8-1.7-3.7-2.8c-1-1.2-1.7-2.6-2.1-4.1c-0.4-1.6-0.7-3.2-0.7-4.9c0-1.8,0.3-3.4,0.8-5
				c0.5-1.6,1.3-2.9,2.3-4.1c1-1.2,2.3-2.1,3.8-2.8s3.3-1,5.4-1c2.2,0,4,0.3,5.5,1s2.8,1.6,3.7,2.8s1.6,2.5,2.1,4.1
				C551.5,338.1,551.7,339.7,551.7,341.5z M544.7,341.5c0-0.9-0.1-1.8-0.2-2.8c-0.1-0.9-0.4-1.7-0.8-2.4s-0.9-1.2-1.5-1.7
				c-0.7-0.4-1.5-0.6-2.5-0.6c-1,0-1.8,0.2-2.5,0.7c-0.7,0.4-1.2,1-1.6,1.7c-0.4,0.7-0.7,1.5-0.9,2.4c-0.2,0.9-0.3,1.8-0.3,2.7
				c0,0.9,0.1,1.9,0.2,2.8c0.2,0.9,0.4,1.8,0.8,2.5c0.4,0.7,0.9,1.3,1.6,1.8c0.7,0.4,1.5,0.7,2.5,0.7c1,0,1.9-0.2,2.6-0.7
				s1.2-1,1.6-1.8s0.6-1.6,0.8-2.5C544.6,343.4,544.7,342.5,544.7,341.5z"/>
			<path class="st0" d="M539.6,355.3c-2.3,0-4.3-0.4-5.9-1.1c-1.6-0.7-3-1.8-4-3c-1-1.3-1.8-2.7-2.2-4.4c-0.5-1.6-0.7-3.3-0.7-5.1
				c0-1.8,0.3-3.6,0.8-5.2c0.5-1.6,1.4-3.1,2.4-4.4c1.1-1.3,2.5-2.3,4.1-3c1.6-0.7,3.6-1.1,5.7-1.1c2.3,0,4.2,0.4,5.8,1.1
				c1.6,0.7,3,1.7,4,3c1,1.2,1.7,2.7,2.2,4.3c0.4,1.6,0.7,3.3,0.7,5.1c0,1.8-0.2,3.5-0.7,5.1c-0.5,1.7-1.2,3.2-2.2,4.4
				c-1,1.3-2.4,2.3-4,3.1C543.9,354.9,541.9,355.3,539.6,355.3z M539.8,329.4c-1.9,0-3.7,0.3-5.1,1c-1.4,0.6-2.6,1.5-3.6,2.6
				c-0.9,1.1-1.7,2.4-2.2,3.9c-0.5,1.5-0.7,3.1-0.7,4.8c0,1.6,0.2,3.2,0.6,4.7c0.4,1.5,1.1,2.8,2,3.9c0.9,1.1,2.1,2,3.5,2.6
				c1.4,0.7,3.2,1,5.3,1s3.9-0.3,5.3-1c1.4-0.7,2.6-1.6,3.5-2.7c0.9-1.1,1.6-2.4,2-3.9c0.4-1.5,0.6-3.1,0.6-4.8
				c0-1.6-0.2-3.2-0.6-4.7c-0.4-1.4-1-2.7-1.9-3.8c-0.9-1.1-2-1.9-3.4-2.6C543.6,329.7,541.8,329.4,539.8,329.4z M539.6,350
				c-1.1,0-2.1-0.3-2.9-0.8c-0.8-0.5-1.4-1.2-1.8-2.1c-0.4-0.8-0.7-1.7-0.9-2.7c-0.2-1-0.2-1.9-0.2-2.9c0-1,0.1-1.9,0.3-2.9
				c0.2-1,0.5-1.8,0.9-2.6c0.5-0.8,1.1-1.5,1.8-2c0.8-0.5,1.8-0.8,2.9-0.8c1.1,0,2.1,0.3,2.9,0.8c0.8,0.5,1.3,1.1,1.8,1.9
				c0.4,0.8,0.7,1.6,0.9,2.6c0.1,0.9,0.2,1.9,0.2,2.9c0,1-0.1,2-0.2,2.9c-0.1,1-0.4,1.9-0.8,2.7c-0.4,0.8-1,1.5-1.8,2.1
				C541.8,349.8,540.8,350,539.6,350z M539.7,334.7c-0.8,0-1.6,0.2-2.1,0.6c-0.6,0.4-1,0.9-1.4,1.5c-0.4,0.6-0.6,1.4-0.8,2.2
				c-0.2,0.8-0.2,1.7-0.2,2.6c0,0.9,0.1,1.8,0.2,2.7c0.1,0.9,0.4,1.6,0.7,2.3c0.3,0.6,0.8,1.1,1.3,1.5c0.5,0.4,1.3,0.6,2.1,0.6
				c0.9,0,1.6-0.2,2.2-0.6c0.6-0.4,1-0.9,1.3-1.5c0.3-0.7,0.6-1.4,0.7-2.3c0.1-0.9,0.2-1.8,0.2-2.7c0-0.9-0.1-1.8-0.2-2.7
				c-0.1-0.8-0.4-1.6-0.7-2.2c-0.3-0.6-0.8-1.1-1.3-1.4C541.2,334.9,540.5,334.7,539.7,334.7z"/>
		</g>
	</g>
	<g>
		<path class="st0" d="M668.8,237.1c-9.9,0-16.2-2-16.3-2.1c-13.6-2.6-23.6-3-24.6-3.1c-3.7,1-6.6,0.7-8.6-1c-3.5-3-2.9-8.9-2.9-9.1
			c0.5-2.4-0.7-13.4-1.4-18.9c-1-7.1,2.7-10,3.3-10.4c6.4-6.4,13.6-1.1,13.7-1c8.6,8.3,44.5,2.7,44.8,2.6
			c36.4-9,35.8-53.3,35.3-61.9c-23.7,28.1-68.7,14.8-69.1,14.7c-26.9-8.2-37-42.2-37.1-42.6l0,0c-8-37,3.4-61,14.3-74.6
			c11.8-14.8,25.7-20.9,25.9-21c47.1-18,80.6,6.3,80.9,6.5c23.4,18.6,32,48,35.1,69.4c3.4,23.2,1.2,42.2,1.2,42.4
			c-2.4,53.3-33.9,84.1-34.2,84.4C706,232.8,683.4,237.1,668.8,237.1z M627.8,230.8L627.8,230.8c0.2,0,10.5,0.4,25,3.1
			c0.4,0.1,37.3,12,75.4-23.4c0.3-0.3,31.5-30.8,33.8-83.6c0.1-0.8,8.3-75.7-35.9-110.8c-0.3-0.2-33.3-24.1-79.7-6.4
			c-0.1,0-13.8,6.1-25.4,20.7c-10.7,13.4-21.9,37.1-14,73.6c0.3,0.9,10.3,33.9,36.4,41.8c0.5,0.1,45.8,13.5,68.8-15.5l0.9-1.1
			l0.1,1.4c0.1,0.5,5,54.4-36.2,64.6c-1.5,0.2-36.8,5.7-45.8-2.9c-0.2-0.1-6.4-4.7-12.1,1l-0.1,0.1c-0.2,0.1-3.8,2.6-2.8,9.3
			c0.1,0.7,2,16.1,1.4,19.3l0,0c0,0-0.5,5.5,2.5,8.1C621.7,231.5,624.3,231.8,627.8,230.8L627.8,230.8z"/>
		<path class="st1" d="M618.3,33l18,12L648,8.5C648,8.5,627.4,16.4,618.3,33z"/>
		<path class="st0" d="M681.9,113.8c-16.4,0-29.8-16.8-29.8-37.4S665.5,39,681.9,39s29.8,16.8,29.8,37.4S698.3,113.8,681.9,113.8z
			 M681.9,40c-15.9,0-28.8,16.3-28.8,36.4c0,20.1,12.9,36.4,28.8,36.4c15.9,0,28.8-16.3,28.8-36.4C710.7,56.3,697.8,40,681.9,40z"/>
		<path class="st1" d="M655.2,61.4l-22,29.2l24.5,6.5C657.7,97.1,647.5,81.9,655.2,61.4z"/>
		<path class="st1" d="M672.4,111.3c0,0,9.4,5.3,17.6,0.6l2.7,33.4L672.4,111.3z"/>
		<path class="st1" d="M762.4,93.3l-15.8,42.2v50.2C746.6,185.7,767.7,159.6,762.4,93.3z"/>
		<polygon class="st1" points="615.4,200.5 629.7,190.9 622.5,231.9 		"/>
		<path class="st0" d="M642.7,146.5l-27.8-71.9l0-0.1l3.2-43.6l25.6,115.3L642.7,146.5z M615.9,74.5l25.3,65.5L618.6,37.8
			L615.9,74.5z"/>
		<path class="st0" d="M603.8,76.9l-0.2-1l22.8-5.1L655.9,58l-4.5-21.5L604,74.6l-0.6-0.8l47.8-38.5l-5.8-27.5l19.4,16.5l28.8-23.2
			l-11.4,39.2l-17.4-14.7l-12.6,10.1l4.8,22.8l-30.3,13.3L603.8,76.9z M665.6,25l16.1,13.6L691.7,4L665.6,25z M647,10.5l5,24.1
			l12-9.7L647,10.5z"/>
		<polygon class="st0" points="749.3,45.4 711,25.7 646.1,9.7 646.3,8.7 711.4,24.8 749.8,44.5 		"/>
		<path class="st0" d="M763.9,94.4l-54.3-22L738,62.3l-14-18.2l-31.3-1.5l0-1l30.5,1.5L692.3,2.9l0.8-0.6l31.4,40.8l27.7,1.4
			l-9.7,17.3l-2.9,1L763.9,94.4z M712.4,72.4l48.5,19.7l-22.3-29L712.4,72.4z M725.3,44.2L739,62l2.8-1l8.7-15.5L725.3,44.2z"/>
		<polygon class="st0" points="700.1,231 666.8,211.9 615.3,200.9 615.5,200 667.1,210.9 667.2,210.9 699.3,229.4 709.5,159.2 
			759.2,149.1 708.2,94.2 693,146 634.9,113.4 657,96.9 636.4,49.3 611.8,122.2 614.9,74.5 615.9,74.6 613.3,114.6 636.3,46.5 
			658.3,97.2 636.7,113.3 692.4,144.6 707.7,92.3 761.1,149.7 710.4,160.1 		"/>
		<path class="st0" d="M654.3,236.3l12.9-24.5H667l-49.8,18.7l25.8-35.3l12.1,12.9l23-15l-9.3,17.7l28.6-0.2l-19.6-16l0.6-0.8
			l20.5,16.8l29-0.2l2-93l9.2-50.3l-46.4,78.7l-81.2-27.2l18.6-28.6l0.8,0.5l-17.9,27.5l79.2,26.5l48.8-82.9L731,117.6l-2,93.9
			l-28.8,0.2l2.7,2.2L654.3,236.3z M668.3,211.9l-11.8,22.3l44.5-20.5l-2.4-2L668.3,211.9z M643.2,196.8l-23.1,31.6l46.8-17.6l0.9,0
			l7.8-14.7L655,209.5L643.2,196.8z"/>
		
			<rect x="616" y="218.7" transform="matrix(0.8706 -0.4919 0.4919 0.8706 -25.4309 341.6593)" class="st0" width="41.9" height="1"/>
		<rect x="623.2" y="227.9" class="st0" width="73.4" height="1"/>
		<polygon class="st0" points="667.1,211.9 666.8,210.9 741.6,186.8 682,193.6 681.9,192.6 746.5,185.2 746.7,186.2 		"/>
		<polygon class="st0" points="700.1,230.4 699.2,230 729.7,154.4 747,185.4 746.1,185.9 729.8,156.8 		"/>
		<polygon class="st0" points="640.8,147.8 671.3,111.9 635.8,113.8 612.6,118.9 612.4,117.9 635.7,112.9 673.5,110.8 646.8,142.3 
			690,111.3 712.6,130.1 762.1,92.9 762.7,93.7 712.5,131.3 689.9,112.6 		"/>
		<rect x="657.2" y="97.1" class="st0" width="1" height="28.6"/>
		<polygon class="st0" points="712.1,71.9 709,43.1 687.6,20.1 650.8,36.9 650.4,36 687.9,18.8 710,42.7 713,71.8 		"/>
		<rect x="709" y="24.8" class="st0" width="1" height="18.1"/>
		<path class="st0" d="M731,117.6l-1-0.1c4.7-31.9-7.3-72-7.4-72.4l1-0.3C723.7,45.2,735.7,85.5,731,117.6z"/>
		<polygon class="st0" points="729.7,156.4 712,130.8 712.1,130.6 716.9,103.4 710.5,72.3 722.6,44.8 725.9,16.6 682.2,39.9 
			681.7,39.1 727.1,14.8 723.6,45.2 711.5,72.5 717.9,103.4 713.1,130.6 729.8,154.8 746.1,135.3 749.2,47.9 750.2,47.9 
			747.1,135.7 747,135.8 		"/>
		<circle class="st2" cx="615.7" cy="198.8" r="2.9"/>
		<circle class="st2" cx="620.8" cy="227.7" r="4.2"/>
		<circle class="st2" cx="636.3" cy="204.6" r="2.8"/>
		<circle class="st2" cx="643" cy="195.5" r="2.4"/>
		<circle class="st2" cx="657.5" cy="206.5" r="2.4"/>
		<circle class="st2" cx="676.4" cy="194.3" r="2.4"/>
		<circle class="st2" cx="667.3" cy="211.7" r="2.7"/>
		<circle class="st2" cx="699.4" cy="229" r="2.9"/>
		<circle class="st2" cx="728.4" cy="211" r="3.3"/>
		<circle class="st2" cx="690.3" cy="203.9" r="2.6"/>
		<circle class="st2" cx="712.4" cy="196.7" r="2.6"/>
		<circle class="st2" cx="715.4" cy="189.6" r="2.2"/>
		<circle class="st2" cx="705.5" cy="190.9" r="2.6"/>
		<circle class="st2" cx="709.8" cy="160.6" r="2.6"/>
		<circle class="st2" cx="746.8" cy="134.8" r="2.8"/>
		<circle class="st2" cx="730.8" cy="118" r="3.3"/>
		<circle class="st2" cx="717.9" cy="103.7" r="2.8"/>
		<circle class="st2" cx="709.8" cy="95.4" r="2.8"/>
		<circle class="st2" cx="711.8" cy="72.1" r="2.4"/>
		<circle class="st2" cx="748.5" cy="103" r="2.1"/>
		<circle class="st2" cx="762.4" cy="93.3" r="2.1"/>
		<circle class="st2" cx="750.7" cy="45.6" r="2.1"/>
		<circle class="st2" cx="724.2" cy="32.6" r="1.8"/>
		<circle class="st2" cx="726" cy="16.5" r="2.6"/>
		<circle class="st2" cx="692" cy="2.9" r="2.9"/>
		<circle class="st2" cx="708.6" cy="24.8" r="2.6"/>
		<circle class="st2" cx="709.4" cy="42.9" r="1.8"/>
		<circle class="st2" cx="688" cy="20.3" r="2.7"/>
		<circle class="st2" cx="647.1" cy="10.1" r="3.5"/>
		<circle class="st2" cx="668.8" cy="28.1" r="2.7"/>
		<circle class="st2" cx="651.4" cy="36" r="3.5"/>
		<circle class="st2" cx="617.7" cy="32.9" r="3.8"/>
		<circle class="st2" cx="637.2" cy="45.8" r="3"/>
		<circle class="st2" cx="655.7" cy="58.3" r="3"/>
		<circle class="st2" cx="631.2" cy="90.3" r="3"/>
		<circle class="st2" cx="636.5" cy="114.4" r="3"/>
		<circle class="st2" cx="640" cy="127.7" r="2.3"/>
		<circle class="st2" cx="655" cy="132" r="2.3"/>
		<circle class="st2" cx="658.6" cy="126.4" r="1.9"/>
		<circle class="st2" cx="690.1" cy="112.9" r="3.5"/>
		<circle class="st2" cx="671.4" cy="111.4" r="1.9"/>
		<circle class="st2" cx="611.6" cy="118.2" r="3.8"/>
		<circle class="st2" cx="642.3" cy="146.4" r="3.1"/>
		<circle class="st2" cx="692.7" cy="146.4" r="3.1"/>
		<circle class="st2" cx="627.1" cy="71.4" r="3"/>
		<circle class="st2" cx="623" cy="57" r="2.3"/>
		<circle class="st2" cx="615.7" cy="64.7" r="2.6"/>
		<circle class="st2" cx="604.4" cy="77.2" r="3.3"/>
		<circle class="st2" cx="614.7" cy="73.8" r="2.7"/>
		<circle class="st2" cx="681.9" cy="39.5" r="1.8"/>
		<circle class="st2" cx="723.1" cy="43.5" r="2.1"/>
		<circle class="st2" cx="739.6" cy="63.5" r="2.1"/>
		<circle class="st2" cx="748.5" cy="88.5" r="2.1"/>
		<circle class="st2" cx="749.6" cy="77.4" r="2.1"/>
		<circle class="st2" cx="730.8" cy="80.5" r="2.1"/>
		<circle class="st2" cx="713.9" cy="129.6" r="3.3"/>
		<circle class="st2" cx="706.3" cy="123.9" r="2.8"/>
		<circle class="st2" cx="700.7" cy="121.3" r="1.8"/>
		<circle class="st2" cx="728.2" cy="155.5" r="3.5"/>
		<circle class="st2" cx="746.8" cy="185" r="2.9"/>
		<circle class="st2" cx="730.3" cy="172.7" r="2.9"/>
		<circle class="st2" cx="701.5" cy="212" r="3"/>
		<circle class="st2" cx="703.5" cy="199.3" r="2"/>
		<circle class="st2" cx="658.5" cy="228.1" r="1.3"/>
		<circle class="st2" cx="655.9" cy="235.3" r="2.7"/>
		<circle class="st2" cx="668.9" cy="228.8" r="2.1"/>
		<circle class="st2" cx="683.5" cy="221.3" r="2.1"/>
	</g>
</g>
</svg>
